<svg width="31" height="30" viewBox="0 0 31 30" fill="none" xmlns="http://www.w3.org/2000/svg">
<path id="Vector" d="M7.08998 24.9423C5.95851 24.7624 4.93271 24.7367 3.87058 24.2441C1.54602 23.1649 0.333104 20.8078 0.163604 18.2876C-0.0576257 15.0144 -0.0532231 9.94149 0.169108 6.66608C0.42776 2.8455 2.95815 0.352072 6.70805 0.128646C12.8133 -0.235537 19.3842 0.291747 25.5115 0.26717C33.664 2.22438 30.0891 12.6137 30.8695 18.7232C30.4952 21.8881 28.3413 24.5144 25.0834 24.8038C21.9465 25.0819 18.518 24.5848 15.3503 24.8674L9.40574 29.7817C6.17864 31.0049 7.3013 26.771 7.08888 24.9412L7.08998 24.9423ZM11.2152 12.5332C11.2152 11.1335 10.0969 9.99847 8.71784 9.99847C7.33872 9.99847 6.22047 11.1335 6.22047 12.5332C6.22047 13.933 7.33872 15.068 8.71784 15.068C10.0969 15.068 11.2152 13.933 11.2152 12.5332ZM18.2671 12.5734C18.2671 11.1714 17.1477 10.0353 15.7664 10.0353C14.3851 10.0353 13.2657 11.1714 13.2657 12.5734C13.2657 13.9754 14.3851 15.1116 15.7664 15.1116C17.1477 15.1116 18.2671 13.9754 18.2671 12.5734ZM25.3299 12.5645C25.3299 11.1715 24.2172 10.0432 22.8457 10.0432C21.4743 10.0432 20.3616 11.1726 20.3616 12.5645C20.3616 13.9564 21.4743 15.0859 22.8457 15.0859C24.2172 15.0859 25.3299 13.9564 25.3299 12.5645Z" fill="#E77C13"/>
</svg>
