<svg width="31" height="32" viewBox="0 0 31 32" fill="none" xmlns="http://www.w3.org/2000/svg">
<g id="Group">
<path id="Vector" d="M18.9685 3.9294C19.4892 4.06478 21.0711 5.07416 21.4838 5.04828C21.9664 5.01742 23.3335 3.92741 23.9441 3.70443C24.4757 3.51131 24.9004 3.6666 25.3411 4.00107C25.8567 4.39328 27.2548 5.86256 27.6365 6.39313C27.9313 6.80226 28.0612 7.18252 27.9323 7.67726C27.7704 8.29842 26.4983 9.78463 26.5543 10.1519C26.5762 10.2933 27.6385 12.3818 27.7414 12.4604C28.1741 12.7889 29.773 12.9352 30.3626 13.2339C30.7394 13.425 30.9022 13.861 30.9402 14.2512C31.0052 14.9211 31.0431 17.5501 30.9142 18.1175C30.7034 19.0513 28.5859 19.1886 27.8094 19.5042C27.2828 20.2269 26.901 21.1089 26.4543 21.9032C26.971 23.0012 28.5599 24.2624 27.7394 25.5058C27.4207 25.9886 25.7918 27.7575 25.3311 28.085C23.8631 29.1282 22.7949 27.429 21.4318 26.995C21.2609 27.0089 19.0715 28.0352 18.9975 28.1467C18.5378 28.8395 18.7887 31.0036 17.9193 31.353C17.7614 31.4167 17.6614 31.4187 17.5005 31.4337C16.6641 31.5093 14.1918 31.5442 13.4224 31.4058C12.1263 31.1719 12.575 28.9092 11.9914 28.0531L9.5001 26.9541C8.30692 27.3762 7.09976 29.0496 5.80366 28.1457C5.314 27.8043 3.92796 26.3151 3.55922 25.8024C3.21346 25.3236 2.96463 25.0976 3.07955 24.4356C3.19447 23.7737 4.60449 22.2725 4.53954 21.8475C4.51755 21.7061 3.45529 19.6177 3.35236 19.539C3.0106 19.2792 1.44169 19.0433 0.881077 18.8163C0.254511 18.5625 0.128596 18.2171 0.0606435 17.5422C-0.00730937 16.8673 -0.0402894 14.6802 0.0826253 14.082C0.327455 12.8815 2.429 12.8546 3.36635 12.4524L4.53554 9.99367C4.05987 8.86882 2.41401 7.67527 3.35736 6.39512C3.7281 5.89242 4.91927 4.6063 5.39094 4.1902C7.01681 2.75477 8.08108 4.68295 9.65998 5.10303L12.1233 3.9284C12.488 2.97576 12.2642 0.726041 13.5973 0.56876C14.4277 0.470211 16.4543 0.485143 17.3017 0.565774C18.9565 0.72405 18.4589 2.7916 18.9705 3.93039L18.9685 3.9294ZM21.9565 16.1774C21.9565 12.6336 19.0725 9.76074 15.5149 9.76074C11.9574 9.76074 9.07339 12.6336 9.07339 16.1774C9.07339 19.7212 11.9574 22.5941 15.5149 22.5941C19.0725 22.5941 21.9565 19.7212 21.9565 16.1774Z" fill="#AEAEAE"/>
<path id="Vector_2" d="M15.5279 19.2187C17.2034 19.2187 18.5618 17.8656 18.5618 16.1965C18.5618 14.5274 17.2034 13.1743 15.5279 13.1743C13.8523 13.1743 12.494 14.5274 12.494 16.1965C12.494 17.8656 13.8523 19.2187 15.5279 19.2187Z" fill="#AEAEAE"/>
</g>
</svg>
