<svg width="25" height="32" viewBox="0 0 25 32" fill="none" xmlns="http://www.w3.org/2000/svg">
<path id="Vector" d="M1.81674 0.524654L16.3052 0.5C16.6023 0.513208 16.9099 0.60478 17.1345 0.809058L24.7719 8.5223L24.9554 8.86569L25 29.4317C24.8899 30.645 24.0318 31.4067 22.8582 31.5H2.05355C0.802195 31.3081 0.107484 30.4126 0 29.1667V2.74529C0.0987452 1.58566 0.686846 0.809058 1.81499 0.523774L1.81674 0.524654ZM22.7254 9.48469L15.9967 2.79284V8.64821C15.9967 8.84192 16.5735 9.48469 16.7395 9.48469H22.7254ZM4.3308 9.48469H12.3702C12.6621 9.48469 12.6341 7.94116 12.5861 7.68229C12.538 7.42342 12.2802 7.2482 12.0259 7.27814L4.43741 7.30368C4.19361 7.36531 4.13594 7.43399 4.1071 7.67525C4.0704 7.98519 4.0267 9.39928 4.3308 9.48557V9.48469ZM4.61131 12.1447C3.99437 12.2838 4.04069 13.1582 4.10797 13.6715C4.15254 14.0123 4.35702 14.1162 4.6786 14.1531H19.2763C20.2192 14.0924 20.1886 12.0734 19.1863 12.1262L4.61131 12.1447ZM16.8461 17.6056C16.6678 17.6426 16.4869 17.7799 16.3436 17.8909C14.7497 19.1262 13.1567 21.2483 11.5855 22.606C11.3417 22.8164 10.9118 23.299 10.6173 23.0489C9.34583 22.024 7.66367 19.4802 6.17113 21.729C5.50439 22.7346 6.15191 23.3183 6.81953 23.9699C7.92758 25.0512 9.16233 26.0109 10.2328 27.1344C10.6531 27.3977 11.0691 27.4329 11.513 27.2005C11.9289 26.983 13.7902 25.0344 14.2945 24.544C15.8184 23.0595 17.2822 21.5062 18.7808 19.9953C19.4423 18.8947 17.9375 17.3776 16.8461 17.6065V17.6056Z" fill="#F57C00"/>
</svg>
