<svg width="393" height="636" viewBox="0 0 393 636" fill="none" xmlns="http://www.w3.org/2000/svg">
<g clip-path="url(#clip0_456_875)">
<path d="M109.772 523.696C72.4945 515.957 40.5267 491.46 24.191 456.602C-36.8386 326.337 133.326 204.4 238.523 294.475C253.62 307.403 262.332 321.785 271.621 339.06C272.095 339.943 273.126 340.606 271.622 341.143L269.056 343.064C208.302 362.504 168.286 426.947 182.143 489.8L181.764 492.367L178.891 493.748C154.696 496.934 131.59 507.071 112.747 522.544L109.77 523.703L109.772 523.696Z" fill="#70C1B3"/>
<path d="M69.9724 404.082C72.3375 401.615 77.6102 404.194 80.3598 404.588C126.619 411.241 168.083 389.397 185.92 345.708C187.092 342.839 189.46 330.255 194.303 334.576C196.899 336.888 195.712 339.596 194.89 342.407C182.694 384.309 141.99 412.337 99.0225 413.206C94.0719 413.306 73.4555 412.102 70.339 409.211C69.1231 408.083 68.7735 405.334 69.9705 404.089L69.9724 404.082Z" fill="#4D3A30"/>
<path d="M68.0532 372.672C71.1219 370.195 75.5778 376.239 78.3963 377.646C89.4893 383.181 106.573 373.679 106.342 360.891C106.283 357.626 102.625 349.563 108.891 350.461C114.103 351.208 113.825 361.087 113.041 364.983C109.439 382.898 87.0827 392.15 71.7715 382.482C68.7963 380.606 64.027 375.923 68.0532 372.672Z" fill="#4D3A30"/>
<path d="M164.78 318.09C165.436 315.876 169.239 315.077 170.878 316.647C176.065 321.606 172.628 333.711 169.268 338.939C162.041 350.18 146.886 355.365 134.803 349.041C131.672 347.405 124.091 341.691 128.574 338.253C132.098 335.557 134.53 340.715 137.663 342.585C149.166 349.443 166.814 338.694 165.986 325.474C165.875 323.69 164.395 319.379 164.771 318.096L164.78 318.09Z" fill="#4D3A30"/>
<path d="M282.833 484.76C311.688 460.13 346.606 445.886 384.584 445.842C423.958 445.8 468.626 465.624 492.723 497.541C504.175 512.705 513.842 531.935 517.549 550.604C531.734 622.009 453.399 665.53 400.261 693.239C371.626 708.174 330.885 722.177 299.157 709.975C260.174 694.982 234.576 647.814 231.205 608.149C227.114 559.964 247.009 515.345 282.833 484.76Z" fill="#F4ADB5"/>
<path d="M291.074 574.158C295.348 570.55 298.918 576.777 302.219 578.973C315.515 587.813 336.234 576.749 337.42 560.863C337.79 555.898 332.944 547.03 340.779 546.958C347.152 546.899 347.686 557.715 347.097 562.415C344.388 583.973 319.9 597.004 300.157 588.683C295.616 586.77 284.921 579.358 291.067 574.162L291.074 574.158Z" fill="#D86669"/>
<path d="M406.04 509.513C406.587 507.5 410.643 505.482 412.687 506.349C417.471 508.396 417.754 518.301 417.17 522.782C414.527 543.045 390.166 557.044 371.368 548.735C366.699 546.671 355.789 538.7 362.399 533.819C366.518 530.775 369.96 536.909 372.915 538.98C386.233 548.29 409.735 534.371 407.952 518.186C407.718 516.041 405.653 510.926 406.036 509.507L406.04 509.513Z" fill="#D86669"/>
<path d="M395.734 572.093C397.985 566.259 406.509 567.253 405.82 575.589C404.364 593.178 381.713 607.321 365.488 608.343C360.545 608.651 345.308 607.288 347.817 599.5C349.772 593.428 356.347 597.886 360.21 598.526C373.083 600.655 389.922 591.107 394.432 578.851C395.198 576.77 395.235 573.413 395.738 572.099L395.734 572.093Z" fill="#D86669"/>
<path d="M268.235 281.068C350.208 255.712 436.54 301.443 463.055 383.487C476.716 425.764 469.348 471.37 448.224 509.655L445.605 508.368C400.063 454.372 318.165 451.543 265.001 496.959L261.419 498.279L258.076 497.299C230.393 476.373 195.699 465.501 161.059 468.053L157.712 467.068C152.388 448.71 152.558 428.24 155.505 409.483C165.102 348.432 209.108 299.357 268.235 281.068Z" fill="#F18A22"/>
<path d="M286.759 360.875C291.307 356.035 294.59 362.36 298.192 364.723C310.885 373.042 330.791 362.638 332.184 347.779C332.599 343.355 327.875 332.293 336.093 333.362C342.027 334.135 342.265 346.113 341.321 350.708C337.59 368.747 317.201 381.066 299.526 375.579C295.071 374.197 281.471 366.505 286.768 360.877L286.759 360.875Z" fill="#E46917"/>
<path d="M294.956 409.513C306.319 400.997 324.042 397.008 336.679 404.989C339.727 406.917 343.6 411.168 339.393 413.99C335.653 416.505 332.961 413.045 329.688 411.854C313.567 405.988 294.942 414.786 291.037 431.911C290.147 435.794 291.594 444.697 285.397 444.365C281.812 444.169 281.012 439.572 280.94 436.696C280.704 427.28 287.472 415.115 294.947 409.511L294.956 409.513Z" fill="#E56A17"/>
<path d="M262.928 374.626C267.781 369.432 271.317 374.456 272.47 379.536C277.904 403.495 247.785 425.15 226.201 413.226C222.376 411.117 213.56 404.817 219.363 400.385C223.843 396.962 227.67 403.654 231.971 405.629C246.56 412.32 265.439 398.858 263.557 382.765C263.308 380.62 261.229 376.429 262.919 374.624L262.928 374.626Z" fill="#E46917"/>
<path d="M166.311 449.692C207.605 445.471 250.402 458.92 282.833 484.76L280.995 488.276C214.805 544.654 214.446 657.339 290.592 704.428C294.133 705.687 296.984 707.535 299.157 709.975C294.646 715.517 289.282 720.444 283.827 725.083C244.584 758.473 185.657 784.133 133.485 772.344C7.43177 743.868 -29.3794 576.635 66.8158 492.99C94.1692 469.21 130.297 453.369 166.311 449.692Z" fill="#FFE066"/>
<path d="M203.665 578.145C208.403 575.052 212.225 579.776 211.64 584.956C208.396 613.696 166.89 635.979 139.836 630.98C135.831 630.239 126.01 627.489 130.255 621.543C133.795 616.579 139.963 620.39 144.602 621.007C165.359 623.766 191.204 608.845 199.167 589.503C200.46 586.352 201.025 579.869 203.665 578.145Z" fill="#EE7A22"/>
<path d="M79.7397 590.501C84.4982 586.48 89.2943 594.586 93.6668 596.755C108.875 604.307 130.012 591.596 129.437 574.414C129.296 570.202 125.225 562.418 131.069 561.082C138.521 559.384 139.886 572.358 139.242 577.581C136.521 599.621 111.757 614.891 91.0083 606.727C86.185 604.827 73.0421 596.165 79.746 590.497L79.7397 590.501Z" fill="#EE7A22"/>
<path d="M155.059 547.015C159.811 542.999 164.619 551.097 168.979 553.273C183.966 560.729 205.418 547.903 205.127 531.039C205.048 526.533 200.73 518.55 207.061 517.009C214.607 515.173 215.507 529.223 214.961 534.214C212.487 556.826 185.5 571.293 164.97 562.386C160.618 560.497 149.228 551.954 155.056 547.025L155.059 547.015Z" fill="#EE7A21"/>
</g>
<defs>
<clipPath id="clip0_456_875">
<rect width="586.772" height="646.743" fill="white" transform="translate(-199.378 293.661) rotate(-30)"/>
</clipPath>
</defs>
</svg>