<svg width="14" height="16" viewBox="0 0 14 16" fill="none" xmlns="http://www.w3.org/2000/svg">
<g id="Frame">
<path d="M14 16H0V0H14V16Z" stroke="#E5E7EB"/>
<path id="Vector" d="M0 2.49982V7.17169C0 7.70294 0.209375 8.21232 0.584375 8.58732L6.08437 14.0873C6.86562 14.8686 8.13125 14.8686 8.9125 14.0873L13.0844 9.91544C13.8656 9.13419 13.8656 7.86857 13.0844 7.08732L7.58437 1.58732C7.20937 1.21232 6.7 1.00294 6.16875 1.00294H1.5C0.671875 0.999816 0 1.67169 0 2.49982ZM3.5 3.49982C3.76522 3.49982 4.01957 3.60517 4.20711 3.79271C4.39464 3.98025 4.5 4.2346 4.5 4.49982C4.5 4.76503 4.39464 5.01939 4.20711 5.20692C4.01957 5.39446 3.76522 5.49982 3.5 5.49982C3.23478 5.49982 2.98043 5.39446 2.79289 5.20692C2.60536 5.01939 2.5 4.76503 2.5 4.49982C2.5 4.2346 2.60536 3.98025 2.79289 3.79271C2.98043 3.60517 3.23478 3.49982 3.5 3.49982Z" fill="#F8A047"/>
</g>
</svg>
