<svg width="29" height="28" viewBox="0 0 29 28" fill="none" xmlns="http://www.w3.org/2000/svg">
<path id="Vector" d="M28.1164 14.2224C28.1164 21.832 21.9483 28 14.3387 28C6.72907 28 0.561035 21.832 0.561035 14.2224C0.561035 6.61274 6.72907 0.444702 14.3387 0.444702C21.9483 0.444702 28.1164 6.61274 28.1164 14.2224ZM10.7139 6.94552C10.0627 6.29286 8.48767 7.7029 7.7346 7.98548C6.98153 8.26806 4.71513 8.34696 5.36493 9.63938C5.88132 10.6636 9.01124 9.31663 9.74854 8.85331C10.3008 8.50618 11.401 7.63548 10.7139 6.94696V6.94552ZM18.3092 6.79061C18.1198 6.84798 17.886 7.15638 17.8358 7.33999C17.5073 8.532 20.5713 9.70679 21.4778 9.88036C22.3342 10.0439 23.4086 10.2777 23.3498 9.02401C23.1977 8.45167 21.4549 8.19921 20.8352 7.94102C20.1524 7.657 18.9073 6.6113 18.3092 6.79061ZM8.98829 10.6736C6.62866 11.1627 7.19239 16.0211 9.66247 15.6554C11.9303 15.3197 11.9174 10.0668 8.98829 10.6736ZM18.7395 10.6707C16.7787 11.1226 16.8016 15.9021 19.4094 15.6539C21.8278 15.423 21.5897 10.0152 18.7395 10.6707ZM18.3106 23.2234C19.2688 22.2666 18.4239 19.8152 17.6364 18.8857C14.6399 15.3484 9.37272 18.2129 10.0655 22.2982C10.4729 24.7023 12.9559 22.8705 14.2612 22.8261C15.5666 22.7816 17.3955 24.1371 18.3106 23.2248V23.2234Z" fill="#F57C00"/>
</svg>
