<svg width="28" height="28" viewBox="0 0 28 28" fill="none" xmlns="http://www.w3.org/2000/svg">
<g id="_&#235;&#160;&#136;&#236;&#157;&#180;&#236;&#150;&#180;_1" clip-path="url(#clip0_480_7765)">
<path id="Vector" d="M0 14.0009C0 6.26744 6.26744 0 14.0009 0C21.7343 0 28.0017 6.26744 28.0017 14.0009C28.0017 21.7343 21.7343 28.0017 14.0009 28.0017" fill="#EF7C1B"/>
<path id="Vector_2" d="M14.0009 28C6.26744 28 0 21.7325 0 14.0009L14.0009 28Z" fill="#EF7C1B"/>
<path id="Vector_3" d="M14.02 13.9C16.4634 13.9 18.4441 11.9193 18.4441 9.47595C18.4441 7.03261 16.4634 5.05188 14.02 5.05188C11.5767 5.05188 9.59595 7.03261 9.59595 9.47595C9.59595 11.9193 11.5767 13.9 14.02 13.9Z" fill="#EF7C1B"/>
<path id="Vector_4" d="M11.6462 15.5295C10.6428 15.6651 9.26202 16.2425 8.47598 16.8807C6.95955 18.1084 5.13532 21.5465 8.11948 22.0978C11.8619 21.816 16.1051 22.4577 19.7831 22.103C23.1864 21.7743 20.9622 17.7398 19.2231 16.5572C17.378 15.3034 13.813 15.2373 11.6445 15.5295H11.6462Z" fill="#EF7C1B"/>
<path id="Vector_5" d="M11.6462 15.5295C13.8148 15.2356 17.3798 15.3034 19.2249 16.5572C20.9639 17.738 23.1881 21.7726 19.7848 22.103C16.1068 22.4595 11.8618 21.816 8.12121 22.0978C5.13531 21.5465 6.96128 18.1085 8.47771 16.8807C9.26549 16.2442 10.6445 15.6669 11.6479 15.5295H11.6462Z" fill="white"/>
<path id="Vector_6" d="M14.02 13.9C16.4634 13.9 18.4441 11.9193 18.4441 9.47595C18.4441 7.03261 16.4634 5.05188 14.02 5.05188C11.5767 5.05188 9.59595 7.03261 9.59595 9.47595C9.59595 11.9193 11.5767 13.9 14.02 13.9Z" fill="white"/>
</g>
<defs>
<clipPath id="clip0_480_7765">
<rect width="28" height="28" fill="white"/>
</clipPath>
</defs>
</svg>
