<svg width="14" height="14" viewBox="0 0 14 14" fill="none" xmlns="http://www.w3.org/2000/svg">
<g id="Frame">
<g clip-path="url(#clip0_645_8371)">
<path id="Vector" d="M5.03125 0.65625C5.03125 0.292578 4.73867 0 4.375 0C4.01133 0 3.71875 0.292578 3.71875 0.65625V1.75H2.625C1.65977 1.75 0.875 2.53477 0.875 3.5V3.9375V5.25V12.25C0.875 13.2152 1.65977 14 2.625 14H11.375C12.3402 14 13.125 13.2152 13.125 12.25V5.25V3.9375V3.5C13.125 2.53477 12.3402 1.75 11.375 1.75H10.2812V0.65625C10.2812 0.292578 9.98867 0 9.625 0C9.26133 0 8.96875 0.292578 8.96875 0.65625V1.75H5.03125V0.65625ZM2.1875 5.25H11.8125V12.25C11.8125 12.4906 11.6156 12.6875 11.375 12.6875H2.625C2.38437 12.6875 2.1875 12.4906 2.1875 12.25V5.25Z" fill="#F57C00"/>
</g>
</g>
<defs>
<clipPath id="clip0_645_8371">
<path d="M0.875 0H13.125V14H0.875V0Z" fill="white"/>
</clipPath>
</defs>
</svg>
