<svg width="50" height="50" viewBox="0 0 50 50" fill="none" xmlns="http://www.w3.org/2000/svg">
<g clip-path="url(#clip0_720_7460)">
<path d="M18.0039 38.4789L17.118 40.5531C15.8031 39.8852 14.5938 39.0625 13.4969 38.0992L15.093 36.5031C15.9719 37.2695 16.9492 37.9375 18.0039 38.4789ZM9.85469 26.125H7.59766C7.69609 27.6156 7.97734 29.057 8.42031 30.4211L10.5156 29.5844C10.1711 28.4805 9.93906 27.3203 9.85469 26.125ZM9.85469 23.875C9.95312 22.5531 10.2203 21.2734 10.6352 20.0711L8.56094 19.1852C8.03359 20.6617 7.70312 22.2367 7.59766 23.875H9.85469ZM11.5211 18.0039C12.0695 16.9563 12.7305 15.9789 13.4969 15.0859L11.9008 13.4898C10.9375 14.5867 10.1078 15.7961 9.44687 17.1109L11.5211 18.0039ZM34.9141 36.5031C33.9367 37.3469 32.8469 38.0711 31.6727 38.6406L32.5094 40.7359C33.9648 40.0398 35.3078 39.1469 36.5102 38.0922L34.9141 36.5031ZM15.0859 13.4969C16.0633 12.6531 17.1531 11.9289 18.3273 11.3594L17.4906 9.26406C16.0352 9.96016 14.6922 10.8531 13.4969 11.9078L15.0859 13.4969ZM38.4789 31.9961C37.9305 33.0438 37.2695 34.0211 36.5031 34.9141L38.0992 36.5102C39.0625 35.4133 39.8922 34.1969 40.5531 32.8891L38.4789 31.9961ZM40.1453 26.125C40.0469 27.4469 39.7797 28.7266 39.3648 29.9289L41.4391 30.8148C41.9664 29.3313 42.2969 27.7563 42.3953 26.118H40.1453V26.125ZM29.5844 39.4844C28.4805 39.8359 27.3203 40.0609 26.125 40.1453V42.4023C27.6156 42.3039 29.057 42.0227 30.4211 41.5797L29.5844 39.4844ZM23.875 40.1453C22.5531 40.0469 21.2734 39.7797 20.0711 39.3648L19.1852 41.4391C20.6687 41.9664 22.2438 42.2969 23.882 42.3953V40.1453H23.875ZM39.4844 20.4156C39.8359 21.5195 40.0609 22.6797 40.1453 23.875H42.4023C42.3039 22.3844 42.0227 20.943 41.5797 19.5789L39.4844 20.4156ZM13.4969 34.9141C12.6531 33.9367 11.9289 32.8469 11.3594 31.6727L9.26406 32.5094C9.96016 33.9648 10.8531 35.3078 11.9078 36.5102L13.4969 34.9141ZM26.125 9.85469C27.4469 9.95312 28.7195 10.2203 29.9289 10.6352L30.8148 8.56094C29.3383 8.03359 27.7633 7.70312 26.125 7.59766V9.85469ZM20.4156 10.5156C21.5195 10.1641 22.6797 9.93906 23.875 9.85469V7.59766C22.3844 7.69609 20.943 7.97734 19.5789 8.42031L20.4156 10.5156ZM38.0992 13.4898L36.5031 15.0859C37.3469 16.0633 38.0711 17.1531 38.6477 18.3273L40.743 17.4906C40.0469 16.0352 39.1539 14.6922 38.0992 13.4898ZM34.9141 13.4969L36.5102 11.9008C35.4133 10.9375 34.2039 10.1078 32.8891 9.44687L32.0031 11.5211C33.0438 12.0695 34.0281 12.7305 34.9141 13.4969Z" fill="#FAFAFA"/>
<g clip-path="url(#clip1_720_7460)">
<path d="M21.1858 29.3549C21.2013 29.4196 21.24 29.4678 21.2902 29.5116C23.8068 31.7164 27.4837 31.7448 29.8824 29.3699L29.9721 29.3576C31.9057 29.8783 34.0571 30.6983 35.3235 32.2769C35.4937 32.4889 36.0612 33.3108 35.9951 33.5469C35.9698 33.6365 34.838 34.6641 34.674 34.7979C32.8269 36.3035 30.4344 37.3765 28.0529 37.787C23.2637 38.6121 18.2485 37.0019 15.0008 33.5169C15.96 31.0508 18.7394 29.9695 21.1866 29.3545L21.1858 29.3549Z" fill="white"/>
<path d="M24.8945 13.0206C29.2141 12.7154 32.5042 15.8404 32.5409 19.9684C33.9832 21.1503 33.4985 23.5189 32.3496 24.734C32.1452 24.9503 31.7123 25.1896 31.576 25.3672C31.4634 25.5149 31.3932 25.7963 31.3026 25.9712C30.7898 26.964 30.1676 27.8373 29.3099 28.583C25.6457 31.7675 21.4938 29.588 19.6325 25.8259C19.5725 25.7051 19.515 25.4521 19.453 25.368C19.3897 25.2819 19.0943 25.1248 18.9862 25.0301C17.612 23.8284 16.9776 21.2775 18.5296 19.9684C18.4121 16.4175 21.2074 13.2811 24.8945 13.0206ZM29.2271 16.4831C29.1647 16.4392 28.813 16.836 28.7387 16.8979C26.4535 18.8035 23.1731 19.1149 20.3934 18.1067C20.2384 18.5279 19.8826 19.1588 19.8128 19.591C19.7814 19.786 19.8406 20.7745 19.7989 20.8211C19.2302 20.8681 18.9474 21.3643 18.9062 21.8716C18.8458 22.611 19.3102 23.785 19.994 24.1734C20.0996 24.2335 20.3697 24.3065 20.4118 24.3614C20.5117 24.4916 20.7117 25.1347 20.8157 25.3522C21.4595 26.6952 22.6056 28.0429 24.0475 28.6205C26.762 29.7076 29.1304 27.6245 30.2014 25.3791C30.2798 25.2148 30.5805 24.3882 30.6347 24.3377C30.6849 24.2911 31.0635 24.1711 31.2276 24.0428C32.0872 23.3705 32.7972 21.1207 31.2733 20.8195L31.2594 19.3526C30.4005 18.5342 29.6898 17.5643 29.2271 16.4827V16.4831Z" fill="white"/>
<path d="M23.2029 26.3384C22.8149 25.9452 23.4808 25.282 23.8007 25.0285C25.0071 24.0724 27.1267 24.3547 27.8575 25.7233C28.0145 26.0174 27.9958 26.3838 27.6065 26.4611C27.1863 26.5444 27.1157 26.2373 26.9027 26.0151C26.2242 25.3072 25.1083 25.1853 24.3307 25.8181C24.0422 26.0529 23.6766 26.8188 23.2025 26.3384H23.2029Z" fill="white"/>
<path d="M29.1773 20.201C29.6747 20.1449 29.9517 20.739 29.5919 21.0789L27.3931 22.1882C26.7701 22.3445 26.4062 21.7832 26.8407 21.3379L29.1778 20.201H29.1773Z" fill="white"/>
<path d="M21.7109 20.2009C21.8484 20.1827 21.9132 20.221 22.0336 20.2653C22.7476 20.529 23.4547 21.0283 24.1662 21.3205C24.6371 21.7263 24.2621 22.3816 23.6456 22.1795L21.4379 21.0785C21.1307 20.7856 21.2698 20.2593 21.7109 20.2009Z" fill="white"/>
<path d="M22.6913 22.0575C23.0516 22.0224 23.4567 22.3196 23.513 22.6631C23.6762 23.6559 22.2127 23.9169 21.9948 22.9497C21.9018 22.5375 22.2625 22.099 22.6913 22.0571V22.0575Z" fill="white"/>
<path d="M28.2393 22.0568C29.2818 21.9344 29.4181 23.7129 28.15 23.5455C27.3299 23.4373 27.3589 22.1603 28.2393 22.0568Z" fill="white"/>
</g>
</g>
<defs>
<clipPath id="clip0_720_7460">
<path d="M7 7H43V43H7V7Z" fill="white"/>
</clipPath>
<clipPath id="clip1_720_7460">
<rect width="21" height="25" fill="white" transform="translate(15 13)"/>
</clipPath>
</defs>
</svg>
