<svg width="29" height="28" viewBox="0 0 29 28" fill="none" xmlns="http://www.w3.org/2000/svg">
<path id="Vector" d="M28.9485 14.0057C28.9485 21.7344 22.6829 28 14.9542 28C7.22554 28 0.959961 21.7344 0.959961 14.0057C0.959961 6.27705 7.2241 0.0114746 14.9542 0.0114746C22.6843 0.0114746 28.9485 6.27705 28.9485 14.0057ZM11.5546 14.1822C12.2432 14.2883 12.9862 13.8896 12.946 13.1279C12.8958 12.1912 11.8616 12.1811 11.2161 11.8656C9.97246 11.2588 8.74746 10.6176 7.54111 9.94344C6.59152 9.57049 5.91734 10.6391 6.31898 11.4568C6.47246 11.7695 7.71611 12.3691 8.11344 12.4623C6.27738 16.1129 11.0282 19.0434 11.5561 14.1822H11.5546ZM18.4399 14.1807C18.9505 18.9646 23.5952 16.2291 21.8983 12.5469C22.003 12.108 24.4645 11.7436 23.5235 10.315C22.7833 9.1918 20.8339 10.8055 19.9044 11.2717C19.1557 11.6461 17.1733 12.1955 17.027 12.9973C16.8807 13.7992 17.6997 14.3801 18.4399 14.1822V14.1807ZM14.1065 18.5271C12.3794 18.6891 10.2192 19.6559 8.90382 20.7834C8.33004 21.2754 7.72185 21.7674 8.13066 22.5549C8.95689 24.1457 10.0844 22.598 10.9048 22.0687C13.4409 20.432 16.1936 20.3215 18.7727 21.9539C19.4985 22.4129 20.1139 23.4471 21.0276 23.1574C23.1132 22.4961 20.4782 20.4994 19.7165 20.0045C18.077 18.9402 16.0745 18.342 14.105 18.5271H14.1065Z" fill="#F57C00"/>
</svg>
