<svg width="28" height="28" viewBox="0 0 28 28" fill="none" xmlns="http://www.w3.org/2000/svg">
<g id="_&#235;&#160;&#136;&#236;&#157;&#180;&#236;&#150;&#180;_1" clip-path="url(#clip0_480_7789)">
<path id="Vector" d="M27.9186 13.9601C27.9186 21.6698 21.668 27.9203 13.9584 27.9203C6.24879 27.9203 0 21.6698 0 13.9601C0 6.25053 6.25053 0 13.9601 0C21.6698 0 27.9203 6.25053 27.9203 13.9601H27.9186ZM8.50155 20.124C7.75121 24.8825 10.5256 22.2849 12.274 20.4914C15.7052 20.3077 21.9366 21.5658 22.3837 16.5647C22.5085 15.1662 22.5466 11.853 22.3612 10.5082C22.1394 8.88971 20.4619 7.1343 18.8278 6.93675C16.8142 6.69241 11.1529 6.71147 9.11845 6.94022C7.49994 7.12217 5.87276 8.79094 5.60763 10.3609C5.40314 11.574 5.4274 15.2841 5.56604 16.5595C5.73413 18.1087 7.013 19.6821 8.50155 20.1258V20.124Z" fill="#EF7C1B"/>
<path id="Vector_2" d="M8.50154 20.124C7.01126 19.6804 5.73239 18.1069 5.56603 16.5577C5.42913 15.2823 5.40314 11.5722 5.60762 10.3592C5.87275 8.78745 7.49993 7.12041 9.11845 6.93845C11.1529 6.70971 16.8142 6.69065 18.8278 6.93499C20.4619 7.13427 22.1394 8.88795 22.3612 10.5065C22.5449 11.8512 22.5085 15.1645 22.3837 16.5629C21.9366 21.5658 15.7052 20.306 12.274 20.4896C10.5273 22.2832 7.75293 24.8808 8.50154 20.1223V20.124ZM10.782 13.6101C10.782 12.9776 10.2691 12.4664 9.63832 12.4664C9.00754 12.4664 8.49461 12.9793 8.49461 13.6101C8.49461 14.2408 9.00754 14.7538 9.63832 14.7538C10.2691 14.7538 10.782 14.2408 10.782 13.6101ZM15.083 13.617C15.083 12.988 14.5736 12.4785 13.9445 12.4785C13.3155 12.4785 12.806 12.988 12.806 13.617C12.806 14.246 13.3155 14.7555 13.9445 14.7555C14.5736 14.7555 15.083 14.246 15.083 13.617ZM19.3737 13.6083C19.3737 12.981 18.8642 12.4716 18.2369 12.4716C17.6096 12.4716 17.1001 12.981 17.1001 13.6083C17.1001 14.2356 17.6096 14.7451 18.2369 14.7451C18.8642 14.7451 19.3737 14.2356 19.3737 13.6083Z" fill="white"/>
<path id="Vector_3" d="M9.63833 14.7538C10.27 14.7538 10.782 14.2417 10.782 13.6101C10.782 12.9784 10.27 12.4664 9.63833 12.4664C9.00668 12.4664 8.49463 12.9784 8.49463 13.6101C8.49463 14.2417 9.00668 14.7538 9.63833 14.7538Z" fill="#EF7C1B"/>
<path id="Vector_4" d="M18.2369 14.7451C18.8647 14.7451 19.3736 14.2362 19.3736 13.6083C19.3736 12.9805 18.8647 12.4716 18.2369 12.4716C17.609 12.4716 17.1001 12.9805 17.1001 13.6083C17.1001 14.2362 17.609 14.7451 18.2369 14.7451Z" fill="#EF7C1B"/>
<path id="Vector_5" d="M13.9445 14.7555C14.5733 14.7555 15.083 14.2458 15.083 13.617C15.083 12.9882 14.5733 12.4785 13.9445 12.4785C13.3158 12.4785 12.806 12.9882 12.806 13.617C12.806 14.2458 13.3158 14.7555 13.9445 14.7555Z" fill="#EF7C1B"/>
</g>
<defs>
<clipPath id="clip0_480_7789">
<rect width="27.9186" height="27.9186" fill="white"/>
</clipPath>
</defs>
</svg>
