<svg width="36" height="36" viewBox="0 0 36 36" fill="none" xmlns="http://www.w3.org/2000/svg">
<g id="Frame">
<g clip-path="url(#clip0_714_2807)">
<g id="Group">
<path id="Vector" d="M11.0039 31.4789L10.118 33.5531C8.80312 32.8852 7.59375 32.0625 6.49688 31.0992L8.09297 29.5031C8.97188 30.2695 9.94922 30.9375 11.0039 31.4789ZM2.85469 19.125H0.597656C0.696094 20.6156 0.977344 22.057 1.42031 23.4211L3.51562 22.5844C3.17109 21.4805 2.93906 20.3203 2.85469 19.125ZM2.85469 16.875C2.95312 15.5531 3.22031 14.2734 3.63516 13.0711L1.56094 12.1852C1.03359 13.6617 0.703125 15.2367 0.597656 16.875H2.85469ZM4.52109 11.0039C5.06953 9.95625 5.73047 8.97891 6.49688 8.08594L4.90078 6.48984C3.9375 7.58672 3.10781 8.79609 2.44687 10.1109L4.52109 11.0039ZM27.9141 29.5031C26.9367 30.3469 25.8469 31.0711 24.6727 31.6406L25.5094 33.7359C26.9648 33.0398 28.3078 32.1469 29.5102 31.0922L27.9141 29.5031ZM8.08594 6.49688C9.06328 5.65313 10.1531 4.92891 11.3273 4.35938L10.4906 2.26406C9.03516 2.96016 7.69219 3.85313 6.49688 4.90781L8.08594 6.49688ZM31.4789 24.9961C30.9305 26.0438 30.2695 27.0211 29.5031 27.9141L31.0992 29.5102C32.0625 28.4133 32.8922 27.1969 33.5531 25.8891L31.4789 24.9961ZM33.1453 19.125C33.0469 20.4469 32.7797 21.7266 32.3648 22.9289L34.4391 23.8148C34.9664 22.3313 35.2969 20.7563 35.3953 19.118H33.1453V19.125ZM22.5844 32.4844C21.4805 32.8359 20.3203 33.0609 19.125 33.1453V35.4023C20.6156 35.3039 22.057 35.0227 23.4211 34.5797L22.5844 32.4844ZM16.875 33.1453C15.5531 33.0469 14.2734 32.7797 13.0711 32.3648L12.1852 34.4391C13.6687 34.9664 15.2438 35.2969 16.882 35.3953V33.1453H16.875ZM32.4844 13.4156C32.8359 14.5195 33.0609 15.6797 33.1453 16.875H35.4023C35.3039 15.3844 35.0227 13.943 34.5797 12.5789L32.4844 13.4156ZM6.49688 27.9141C5.65313 26.9367 4.92891 25.8469 4.35938 24.6727L2.26406 25.5094C2.96016 26.9648 3.85313 28.3078 4.90781 29.5102L6.49688 27.9141ZM19.125 2.85469C20.4469 2.95312 21.7195 3.22031 22.9289 3.63516L23.8148 1.56094C22.3383 1.03359 20.7633 0.703125 19.125 0.597656V2.85469ZM13.4156 3.51562C14.5195 3.16406 15.6797 2.93906 16.875 2.85469V0.597656C15.3844 0.696094 13.943 0.977344 12.5789 1.42031L13.4156 3.51562ZM31.0992 6.48984L29.5031 8.08594C30.3469 9.06328 31.0711 10.1531 31.6477 11.3273L33.743 10.4906C33.0469 9.03516 32.1539 7.69219 31.0992 6.48984ZM27.9141 6.49688L29.5102 4.90078C28.4133 3.9375 27.2039 3.10781 25.8891 2.44687L25.0031 4.52109C26.0438 5.06953 27.0281 5.73047 27.9141 6.49688Z" fill="#FAFAFA"/>
<path id="Vector_2" d="M18 27.5625C19.0873 27.5625 19.9688 26.6811 19.9688 25.5938C19.9688 24.5064 19.0873 23.625 18 23.625C16.9127 23.625 16.0312 24.5064 16.0312 25.5938C16.0312 26.6811 16.9127 27.5625 18 27.5625Z" fill="#FAFAFA"/>
<path id="Vector_3" d="M18.5414 21.9375H17.4164C16.9524 21.9375 16.5727 21.5578 16.5727 21.0938C16.5727 16.1016 22.0149 16.6008 22.0149 13.5141C22.0149 12.1078 20.7633 10.6875 17.9789 10.6875C15.9328 10.6875 14.8641 11.3625 13.8164 12.7055C13.5422 13.057 13.036 13.1273 12.6774 12.8742L11.7563 12.2273C11.3625 11.9531 11.2711 11.3977 11.5735 11.018C13.0641 9.10547 14.836 7.875 17.986 7.875C21.6633 7.875 24.8344 9.97031 24.8344 13.5141C24.8344 18.2672 19.3922 17.9789 19.3922 21.0938C19.3852 21.5578 19.0055 21.9375 18.5414 21.9375Z" fill="#FAFAFA"/>
</g>
</g>
</g>
<defs>
<clipPath id="clip0_714_2807">
<path d="M0 0H36V36H0V0Z" fill="white"/>
</clipPath>
</defs>
</svg>
