<svg width="137" height="25" viewBox="0 0 137 25" fill="none" xmlns="http://www.w3.org/2000/svg">
<path d="M12.328 24.08C9.99467 24.08 7.88533 23.5573 6 22.512C4.13333 21.4853 2.668 20.0667 1.604 18.256C0.54 16.4267 0.00800006 14.3733 0.00800006 12.096C0.00800006 9.81867 0.54 7.77467 1.604 5.964C2.668 4.13467 4.13333 2.70667 6 1.68C7.88533 0.634665 9.99467 0.111999 12.328 0.111999C14.6613 0.111999 16.7613 0.634665 18.628 1.68C20.5133 2.70667 21.988 4.13467 23.052 5.964C24.116 7.77467 24.648 9.81867 24.648 12.096C24.648 14.3733 24.116 16.4267 23.052 18.256C21.988 20.0667 20.5133 21.4853 18.628 22.512C16.7613 23.5573 14.6613 24.08 12.328 24.08ZM12.328 19.488C13.6907 19.488 14.9227 19.1707 16.024 18.536C17.1253 17.9013 17.984 17.024 18.6 15.904C19.2347 14.7653 19.552 13.496 19.552 12.096C19.552 10.6773 19.2347 9.408 18.6 8.288C17.984 7.168 17.1253 6.29067 16.024 5.656C14.9227 5.02133 13.6907 4.704 12.328 4.704C10.9653 4.704 9.73333 5.02133 8.632 5.656C7.53067 6.29067 6.66267 7.168 6.028 8.288C5.412 9.408 5.104 10.6773 5.104 12.096C5.104 13.496 5.412 14.7653 6.028 15.904C6.66267 17.024 7.53067 17.9013 8.632 18.536C9.73333 19.1707 10.9653 19.488 12.328 19.488ZM27.5362 7.112H32.5202V8.792C33.5468 7.41067 35.0775 6.72 37.1122 6.72C38.3815 6.72 39.5015 7.01867 40.4722 7.616C41.4428 8.19467 42.1895 9.03467 42.7122 10.136C43.2535 11.2373 43.5242 12.5347 43.5242 14.028V23.52H38.5402V14.868C38.5402 13.6173 38.2882 12.6653 37.7842 12.012C37.2988 11.34 36.5895 11.004 35.6562 11.004C34.6855 11.004 33.9202 11.368 33.3602 12.096C32.8002 12.824 32.5202 13.8227 32.5202 15.092V23.52H27.5362V7.112ZM47.0355 0.699999H55.8835C58.3662 0.699999 60.5315 1.18533 62.3795 2.156C64.2275 3.108 65.6462 4.452 66.6355 6.188C67.6249 7.90533 68.1195 9.884 68.1195 12.124C68.1195 14.364 67.6249 16.352 66.6355 18.088C65.6462 19.8053 64.2275 21.14 62.3795 22.092C60.5315 23.044 58.3662 23.52 55.8835 23.52H47.0355V0.699999ZM55.9675 19.012C58.1702 19.012 59.8969 18.4147 61.1475 17.22C62.3982 16.0067 63.0235 14.308 63.0235 12.124C63.0235 9.94 62.3982 8.24133 61.1475 7.028C59.8969 5.81467 58.1702 5.208 55.9675 5.208H52.1315V19.012H55.9675ZM78.1801 23.912C76.6307 23.912 75.2494 23.5387 74.0361 22.792C72.8227 22.064 71.8801 21.0467 71.2081 19.74C70.5361 18.4333 70.2001 16.9587 70.2001 15.316C70.2001 13.6733 70.5361 12.1987 71.2081 10.892C71.8801 9.58533 72.8227 8.568 74.0361 7.84C75.2494 7.09333 76.6307 6.72 78.1801 6.72C80.2894 6.72 81.8574 7.41067 82.8841 8.792V7.112H87.8681V23.52H82.8841V21.84C81.8574 23.2213 80.2894 23.912 78.1801 23.912ZM78.9641 19.656C80.1774 19.656 81.1481 19.2547 81.8761 18.452C82.6041 17.6307 82.9681 16.5853 82.9681 15.316C82.9681 14.0467 82.6041 13.0107 81.8761 12.208C81.1481 11.3867 80.1774 10.976 78.9641 10.976C77.7881 10.976 76.8454 11.3867 76.1361 12.208C75.4267 13.0107 75.0721 14.0467 75.0721 15.316C75.0721 16.5853 75.4267 17.6307 76.1361 18.452C76.8454 19.2547 77.7881 19.656 78.9641 19.656ZM97.7899 23.912C96.5206 23.912 95.4006 23.6133 94.4299 23.016C93.4592 22.4373 92.7032 21.5973 92.1619 20.496C91.6392 19.3947 91.3779 18.0973 91.3779 16.604V7.112H96.3619V15.764C96.3619 17.0147 96.6046 17.976 97.0899 18.648C97.5939 19.3013 98.3126 19.628 99.2459 19.628C100.217 19.628 100.982 19.264 101.542 18.536C102.102 17.808 102.382 16.8093 102.382 15.54V7.112H107.366V23.52H102.382V21.84C101.355 23.2213 99.8246 23.912 97.7899 23.912ZM111.126 7.112H116.11V8.68C116.614 8.008 117.183 7.51333 117.818 7.196C118.471 6.87867 119.246 6.72 120.142 6.72C121.169 6.72 122.102 6.92533 122.942 7.336C123.782 7.728 124.473 8.30667 125.014 9.072C125.63 8.288 126.386 7.7 127.282 7.308C128.178 6.916 129.242 6.72 130.474 6.72C131.725 6.72 132.826 7.01867 133.778 7.616C134.73 8.19467 135.467 9.03467 135.99 10.136C136.513 11.2373 136.774 12.5347 136.774 14.028V23.52H131.79V14.868C131.79 13.6173 131.557 12.6653 131.09 12.012C130.623 11.34 129.933 11.004 129.018 11.004C128.215 11.004 127.59 11.312 127.142 11.928C126.713 12.544 126.479 13.44 126.442 14.616V23.52H121.458V14.868C121.458 13.6173 121.225 12.6653 120.758 12.012C120.291 11.34 119.601 11.004 118.686 11.004C117.883 11.004 117.258 11.312 116.81 11.928C116.381 12.544 116.147 13.44 116.11 14.616V23.52H111.126V7.112Z" fill="#F57C00"/>
</svg>
