<svg width="29" height="28" viewBox="0 0 29 28" fill="none" xmlns="http://www.w3.org/2000/svg">
<path id="Vector" d="M28.5609 14.1937C28.5609 21.8191 22.38 28 14.7546 28C7.12919 28 0.948242 21.8191 0.948242 14.1937C0.948242 6.56827 7.12919 0.387329 14.7546 0.387329C22.38 0.387329 28.5609 6.56827 28.5609 14.1937ZM9.17755 8.08589C7.04886 8.52483 7.22816 12.7707 9.03123 13.1853C12.4193 13.9656 12.372 7.42749 9.17755 8.08589ZM21.2167 8.53344C20.237 7.62688 18.8728 8.04573 18.3234 9.19901C17.5833 10.7554 18.1599 13.3402 20.1939 13.2269C22.228 13.1136 22.512 9.73262 21.2167 8.53344ZM12.1368 22.9193C15.5335 26.3677 20.8193 21.2252 17.5331 17.1644C13.9671 12.7593 8.51341 19.2429 12.1368 22.9193Z" fill="#F57C00"/>
</svg>
