<svg width="62" height="62" viewBox="0 0 62 62" fill="none" xmlns="http://www.w3.org/2000/svg">
<path d="M0 31C0 13.8792 13.8792 0 31 0C48.1208 0 62 13.8792 62 31C62 48.1208 48.1208 62 31 62C13.8792 62 0 48.1208 0 31Z" fill="#F57C00"/>
<g clip-path="url(#clip0_720_7608)">
<path d="M31 17.875C31.832 17.875 32.5996 18.3145 33.0215 19.0352L45.6777 40.5977C46.1054 41.3242 46.1054 42.2207 45.6894 42.9473C45.2734 43.6738 44.4941 44.125 43.6562 44.125H18.3437C17.5058 44.125 16.7265 43.6738 16.3105 42.9473C15.8945 42.2207 15.9004 41.3184 16.3222 40.5977L28.9785 19.0352C29.4004 18.3145 30.1679 17.875 31 17.875ZM31 25.375C30.2207 25.375 29.5937 26.002 29.5937 26.7812V33.3438C29.5937 34.123 30.2207 34.75 31 34.75C31.7793 34.75 32.4062 34.123 32.4062 33.3438V26.7812C32.4062 26.002 31.7793 25.375 31 25.375ZM32.875 38.5C32.875 38.0027 32.6774 37.5258 32.3258 37.1742C31.9742 36.8225 31.4973 36.625 31 36.625C30.5027 36.625 30.0258 36.8225 29.6741 37.1742C29.3225 37.5258 29.125 38.0027 29.125 38.5C29.125 38.9973 29.3225 39.4742 29.6741 39.8258C30.0258 40.1775 30.5027 40.375 31 40.375C31.4973 40.375 31.9742 40.1775 32.3258 39.8258C32.6774 39.4742 32.875 38.9973 32.875 38.5Z" fill="#FAFAFA"/>
</g>
<defs>
<clipPath id="clip0_720_7608">
<path d="M16 16H46V46H16V16Z" fill="white"/>
</clipPath>
</defs>
</svg>
