<svg width="28" height="29" viewBox="0 0 28 29" fill="none" xmlns="http://www.w3.org/2000/svg">
<g id="_&#235;&#160;&#136;&#236;&#157;&#180;&#236;&#150;&#180;_1" clip-path="url(#clip0_480_7752)">
<path id="Vector" d="M28 14.5C28 22.2321 21.7321 28.5 14 28.5C6.26786 28.5 0 22.2321 0 14.5C0 6.76786 6.26786 0.5 14 0.5C21.7321 0.5 28 6.76786 28 14.5ZM17.9007 9.5578C18.0428 7.89423 17.8037 6.6119 15.9166 6.42994C14.9981 6.34157 11.9517 6.32424 11.191 6.5755C9.86013 7.01739 10.0802 8.41583 10.1027 9.5578H6.03045C5.98193 9.5578 5.32863 10.0881 5.26798 10.1816C4.96646 10.6582 4.96299 14.0391 5.23852 14.5069C5.31477 14.6352 5.66654 14.9107 5.81384 14.9713C6.61097 15.3006 9.84973 15.5571 10.8825 15.6212C11.4284 15.6541 11.9829 15.6038 12.5288 15.6229L12.6899 14.1378C13.2133 14.0789 15.2823 13.8346 15.4487 14.3458L15.4712 15.6229C15.7017 15.8517 21.2313 15.2555 21.9314 15.0632C22.1896 14.9921 22.6315 14.7253 22.7615 14.5069C23.0041 14.0945 23.011 11.2786 22.8862 10.7206C22.8083 10.3688 22.0926 9.5578 21.7963 9.5578H17.8973H17.9007ZM22.9261 20.9082V15.6229C20.6214 16.4686 17.9319 16.4772 15.4747 16.6609L15.4002 17.5395C15.1992 17.8358 11.9933 18.0732 12.5218 16.6696L5.07736 15.7962V20.9082C5.07736 21.2999 6.42555 22.1351 6.89689 22.0346C11.4041 21.766 16.3099 22.3898 20.7669 22.0415C21.4549 21.9878 22.7494 21.6811 22.9261 20.9082Z" fill="#EF7C1B"/>
<path id="Vector_2" d="M17.9007 9.5578H21.7997C22.0961 9.5578 22.8118 10.3705 22.8897 10.7206C23.0145 11.2803 23.0076 14.0962 22.765 14.5069C22.635 14.7253 22.1931 14.9939 21.9349 15.0632C21.2348 15.2538 15.7034 15.8516 15.4747 15.6229L15.4522 14.3458C15.2858 13.8346 13.215 14.0789 12.6934 14.1378L12.5323 15.6229C11.9864 15.6038 11.4336 15.6541 10.886 15.6212C9.85148 15.5571 6.61272 15.3006 5.81732 14.9713C5.67003 14.9107 5.31652 14.6352 5.242 14.5069C4.96647 14.039 4.96994 10.6582 5.27146 10.1816C5.33211 10.0863 5.98368 9.5578 6.03393 9.5578H10.1062C10.0837 8.41583 9.86535 7.01739 11.1945 6.5755C11.9552 6.3225 15.0016 6.33983 15.9201 6.42994C17.8072 6.61189 18.0463 7.89423 17.9042 9.5578H17.9007ZM16.3411 7.9982H12.0956C12.0523 7.9982 11.9933 7.85784 11.9223 7.86477L11.6831 8.10564L11.6624 9.5578H16.3411V7.9982Z" fill="white"/>
<path id="Vector_3" d="M22.9261 20.9082C22.7494 21.6811 21.4549 21.9878 20.767 22.0415C16.3082 22.3898 11.4024 21.766 6.89692 22.0346C6.42558 22.1334 5.07739 21.2998 5.07739 20.9082V15.7962L12.5219 16.6696C11.9916 18.0732 15.1992 17.8358 15.4002 17.5395L15.4747 16.6609C17.932 16.4772 20.6214 16.4668 22.9261 15.6229V20.9082Z" fill="white"/>
<path id="Vector_4" d="M16.3412 7.9982V9.5578H11.6624L11.6831 8.10564L11.9223 7.86477C11.9933 7.85957 12.0523 7.9982 12.0956 7.9982H16.3412Z" fill="#EF7C1B"/>
</g>
<defs>
<clipPath id="clip0_480_7752">
<rect width="28" height="28" fill="white" transform="translate(0 0.5)"/>
</clipPath>
</defs>
</svg>
