<svg width="14" height="20" viewBox="0 0 14 20" fill="none" xmlns="http://www.w3.org/2000/svg">
<path id="Vector" d="M0 2.50684C0 1.54069 0.783854 0.756836 1.75 0.756836V2.50684V16.8495L6.49323 13.4626C6.79583 13.2438 7.20781 13.2438 7.51042 13.4626L12.25 16.8495V2.50684H1.75V0.756836H12.25C13.2161 0.756836 14 1.54069 14 2.50684V18.5485C14 18.8766 13.8177 19.1756 13.526 19.3251C13.2344 19.4745 12.8844 19.449 12.6182 19.2594L7 15.249L1.38177 19.2594C1.11563 19.449 0.765625 19.4745 0.473958 19.3251C0.182292 19.1756 0 18.8766 0 18.5485V2.50684Z" fill="#9CA3AF"/>
</svg>
