<svg width="28" height="28" viewBox="0 0 28 28" fill="none" xmlns="http://www.w3.org/2000/svg">
<path id="Vector" d="M27.7234 14.1966C27.7234 21.8191 21.5439 28 13.9199 28C6.29597 28 0.116455 21.8205 0.116455 14.1966C0.116455 6.57258 6.29597 0.393066 13.9199 0.393066C21.5439 0.393066 27.7234 6.57258 27.7234 14.1966ZM9.93654 12.0607C10.7613 11.8369 12.6892 11.5859 12.5214 10.4183C12.4898 10.1959 12.1929 9.83589 11.9863 9.78856C11.6378 9.70967 9.90785 10.2834 9.28674 10.3365C8.66564 10.3896 7.7433 10.3896 7.13941 10.3365C6.4351 10.2748 4.19022 9.42995 3.93346 10.2978C3.58776 11.4668 5.80539 11.9488 6.63449 12.0607C5.05375 16.9162 11.9548 16.7814 9.93367 12.0607H9.93654ZM21.1251 12.0607C21.7863 11.9861 23.5693 11.5716 23.7888 10.9203C24.397 9.11438 21.2226 10.2849 20.3433 10.3451C18.5374 10.4685 17.0843 9.88467 15.3716 9.99225C14.6931 11.6146 16.7042 11.8168 17.8259 12.0621C16.0831 16.9664 22.7001 16.7886 21.1251 12.0621V12.0607ZM19.9431 22.6396C20.8568 21.7259 18.4197 19.95 17.7255 19.547C14.7562 17.8185 10.0556 18.3306 8.01297 21.2539C7.44494 22.0673 7.61994 22.9939 8.68285 22.7974C9.15908 22.7099 10.496 21.482 11.229 21.1722C13.5111 20.2054 15.756 20.6386 17.7872 21.9267C18.5087 22.3843 18.8601 23.2564 19.9431 22.6425V22.6396Z" fill="#F57C00"/>
</svg>
