<svg width="28" height="28" viewBox="0 0 28 28" fill="none" xmlns="http://www.w3.org/2000/svg">
<path id="Vector" d="M27.9598 14.0201C27.9598 21.7416 21.7014 28 13.9799 28C6.2584 28 0 21.7402 0 14.0201C0 6.30003 6.2584 0.0387573 13.9799 0.0387573C21.7014 0.0387573 27.9598 6.29716 27.9598 14.0187V14.0201ZM9.02111 8.64818C6.70021 9.12585 6.9498 14.1664 9.40553 14.0588C12.1309 13.9398 11.8943 8.0572 9.02111 8.64818ZM18.3449 8.64818C15.9551 9.14163 16.4271 14.3013 18.8713 14.066C21.4562 13.8164 21.2553 8.04859 18.3449 8.64818ZM6.15082 16.8201C4.08381 17.2763 6.88381 20.2756 7.62254 20.881C11.8484 24.348 19.491 23.6222 22.2293 18.7021C22.8762 17.5388 22.2078 16.4328 20.9555 16.8545C20.7088 16.9377 19.4365 18.6232 18.9574 19.0177C16.0154 21.4418 11.6418 21.3543 8.77008 18.8742C7.89652 18.1197 7.34426 16.5576 6.15082 16.8215V16.8201Z" fill="#F57C00"/>
</svg>
