<svg width="29" height="28" viewBox="0 0 29 28" fill="none" xmlns="http://www.w3.org/2000/svg">
<path id="Vector" d="M28.96 14C28.96 21.7316 22.6915 28 14.96 28C7.2284 28 0.959961 21.7316 0.959961 14C0.959961 6.26844 7.22697 0 14.96 0C22.693 0 28.96 6.26844 28.96 14ZM10.7987 8.8748C10.6208 8.9293 9.83045 9.65943 9.48189 9.85451C8.57246 10.3637 6.51263 10.6377 6.11529 10.9332C5.63619 11.2904 5.78681 12.0951 6.3534 12.2586C7.65873 12.6344 10.661 11.5141 11.4901 10.4268C12.1012 9.62357 11.8889 8.54058 10.8001 8.8748H10.7987ZM18.5446 8.87336C18.0225 9.03115 18.1071 9.71537 18.2663 10.0998C18.5116 10.6951 20.0852 11.5787 20.702 11.8225C21.5454 12.1568 24.3067 12.9758 24.0399 11.3621C23.9309 10.7008 21.8811 10.4971 21.1725 10.2045C20.7407 10.0266 20.3649 9.78709 19.9747 9.5375C19.4626 9.20902 19.3493 8.62951 18.5446 8.87336ZM10.935 13.343C8.60402 11.2301 6.26591 15.6137 8.64132 17.1414C10.8733 18.5758 12.7251 14.9654 10.935 13.343ZM19.8384 12.8955C17.8833 13.3 17.8159 17.0023 19.8384 17.4182C23.0387 18.0766 23.195 12.2012 19.8384 12.8955ZM22.9856 18.1842C22.6098 18.2846 21.5698 20.6844 21.4895 21.1434C20.9487 24.2633 24.8389 24.3049 24.7657 21.6828C24.7471 21.0287 23.8448 18.9359 23.446 18.4023C23.3055 18.2158 23.2538 18.1125 22.9856 18.1828V18.1842ZM19.411 23.44C20.5456 22.3613 17.902 20.376 16.9639 20.0074C15.2296 19.326 13.3247 19.5699 11.7985 20.6342C11.1817 21.0646 9.64685 22.6338 10.4071 23.4098C11.2893 24.3092 12.4899 22.4559 13.3692 22.0615C14.5311 21.5408 15.987 21.6527 17.0557 22.3541C17.638 22.7357 18.5647 24.2432 19.4096 23.44H19.411Z" fill="#F57C00"/>
</svg>
