<svg width="14" height="15" viewBox="0 0 14 15" fill="none" xmlns="http://www.w3.org/2000/svg">
<path d="M11.375 6.1875C11.3568 7.46354 10.9922 8.58463 10.2812 9.55078L13.7539 12.9961C13.918 13.1784 14 13.388 14 13.625C14 13.862 13.918 14.0716 13.7539 14.2539C13.5716 14.418 13.362 14.5 13.125 14.5C12.888 14.5 12.6784 14.418 12.4961 14.2539L9.05078 10.7812C8.08463 11.4922 6.96354 11.8568 5.6875 11.875C4.08333 11.8385 2.74349 11.2826 1.66797 10.207C0.592447 9.13151 0.0364583 7.79167 0 6.1875C0.0364583 4.5833 0.592447 3.24347 1.66797 2.168C2.74349 1.09247 4.08333 0.536467 5.6875 0.5C7.29167 0.536467 8.63151 1.09247 9.70703 2.168C10.7825 3.24347 11.3385 4.5833 11.375 6.1875ZM5.6875 10.125C6.39844 10.125 7.05469 9.95182 7.65625 9.60547C8.25781 9.25912 8.74088 8.77604 9.10547 8.15625C9.45182 7.53646 9.625 6.88021 9.625 6.1875C9.625 5.49479 9.45182 4.83857 9.10547 4.21881C8.74088 3.59901 8.25781 3.1159 7.65625 2.7695C7.05469 2.42317 6.39844 2.25 5.6875 2.25C4.97656 2.25 4.32031 2.42317 3.71875 2.7695C3.11719 3.1159 2.63412 3.59901 2.26953 4.21881C1.92318 4.83857 1.75 5.49479 1.75 6.1875C1.75 6.88021 1.92318 7.53646 2.26953 8.15625C2.63412 8.77604 3.11719 9.25912 3.71875 9.60547C4.32031 9.95182 4.97656 10.125 5.6875 10.125Z" fill="#F8A047"/>
</svg>
