<svg width="776" height="646" viewBox="0 0 776 646" fill="none" xmlns="http://www.w3.org/2000/svg">
<path d="M190.711 0C209.054 3.6938 223.576 11.1194 238.035 22.7574C240.932 25.085 247.232 33.0924 249.698 33.8261C254.682 35.3188 270.191 34.661 277.073 35.5086C295.605 37.7856 313.594 43.0859 330.861 49.9169C335.301 51.6753 347.85 58.9743 350.582 59.3285C356.591 60.1002 372.833 53.1933 382.017 52.9656C404.218 52.4216 424.66 62.7693 442.674 74.4073C468.67 62.4278 496.905 54.7366 525.797 55.3185C581.204 -13.8518 691.791 25.6289 692.221 114.267C692.259 121.642 687.629 136.696 688.312 141.946C688.679 144.703 701.607 165.917 704.061 171.749C716.559 201.439 719.911 232.292 714.434 264.107C713.321 270.546 705.339 295.34 706.199 298.312C706.616 299.742 721.467 317.819 724.2 322.056C750.335 362.701 765.603 416.792 764.073 465.229C763.883 471.39 761.226 482.281 761.593 487.911C761.796 491.086 767.931 498.41 769.753 502.509C787.564 542.723 759.101 594.98 715.307 599.547C709.931 600.103 702.821 598.75 698.09 600.002C694.232 601.027 679.849 611.463 674.447 614.246C623.822 640.343 537.385 659.584 485.393 630.223C481.206 627.858 470.049 618.345 467.658 617.649C463.42 616.422 455.868 617.649 450.593 617.029C427.406 614.246 409 600.736 393.326 584.582C391.555 582.76 392.125 580.078 389.633 580.762C377.893 596.979 360.993 608.035 341.955 613.93C336.326 615.676 328.014 616.08 323.41 618.117C319.438 619.863 312.265 626.921 307.281 629.768C267.94 652.272 216.872 645.605 174.241 637.003C94.3057 620.875 27.4125 581.128 6.6792 497.714C3.85825 486.355 2.84625 474.679 0 463.357V417.905C3.75705 403.219 5.30035 388.14 9.19655 373.441C18.8358 337.173 36.7609 303.258 60.429 274.341C44.8442 226.562 50.6885 180.237 73.8633 136.329C75.938 132.408 83.9201 121.82 84.4261 119.011C85.0839 115.381 81.1118 102.035 80.8461 96.5701C78.9107 55.4323 106.804 17.2546 145.513 4.69315L162.919 0H190.699L190.711 0Z" fill="#FFE5B9"/>
<path d="M208.607 29.3205C225.282 32.6785 238.484 39.429 251.629 50.009C254.262 52.125 259.989 59.4045 262.232 60.0715C266.763 61.4285 280.862 60.8305 287.118 61.601C303.965 63.671 320.318 68.4895 336.016 74.6995C340.052 76.298 351.46 82.9335 353.944 83.2555C359.407 83.957 374.173 77.678 382.522 77.471C402.704 76.9765 421.288 86.3835 437.664 96.9635C461.297 86.073 486.965 79.081 513.231 79.61C563.601 16.728 664.134 52.6195 664.525 133.2C664.559 139.905 660.35 153.59 660.971 158.362C661.305 160.869 673.058 180.155 675.289 185.456C686.651 212.447 689.698 240.495 684.719 269.418C683.707 275.271 676.45 297.811 677.232 300.514C677.612 301.813 691.113 318.247 693.597 322.099C717.356 359.049 731.236 408.223 729.845 452.256C729.672 457.857 727.257 467.758 727.591 472.876C727.775 475.762 733.352 482.421 735.008 486.147C751.2 522.705 725.325 570.212 685.512 574.363C680.625 574.869 674.162 573.639 669.861 574.777C666.353 575.709 653.278 585.196 648.367 587.726C602.344 611.451 523.765 628.942 476.5 602.251C472.693 600.1 462.55 591.452 460.377 590.82C456.524 589.704 449.659 590.819 444.863 590.256C423.784 587.726 407.051 575.444 392.803 560.759C391.193 559.103 391.71 556.665 389.445 557.285C378.773 572.029 363.409 582.079 346.101 587.439C340.984 589.026 333.428 589.394 329.242 591.245C325.631 592.832 319.111 599.249 314.58 601.837C278.815 622.295 232.389 616.235 193.634 608.415C120.966 593.752 60.1539 557.619 41.3054 481.788C38.7409 471.461 37.8209 460.847 35.2334 450.554V409.234C38.6489 395.883 40.0519 382.175 43.5939 368.812C52.3569 335.842 68.6524 305.01 90.1689 278.721C76.0009 235.286 81.3139 193.173 102.382 153.256C104.268 149.691 111.524 140.066 111.984 137.513C112.582 134.212 108.971 122.08 108.73 117.112C106.97 79.7135 132.328 45.0065 167.518 33.587L183.342 29.3205H208.596L208.607 29.3205Z" fill="#FFD488"/>
<path d="M231.95 67.5647C246.45 70.4847 257.93 76.3547 269.36 85.5547C271.65 87.3947 276.63 93.7247 278.58 94.3047C282.52 95.4847 294.78 94.9647 300.22 95.6347C314.87 97.4347 329.09 101.625 342.74 107.025C346.25 108.415 356.17 114.185 358.33 114.465C363.08 115.075 375.92 109.615 383.18 109.435C400.73 109.005 416.89 117.185 431.13 126.385C451.68 116.915 474 110.835 496.84 111.295C540.64 56.6147 628.06 87.8247 628.4 157.895C628.43 163.725 624.77 175.625 625.31 179.775C625.6 181.955 635.82 198.725 637.76 203.335C647.64 226.805 650.29 251.195 645.96 276.345C645.08 281.435 638.77 301.035 639.45 303.385C639.78 304.515 651.52 318.805 653.68 322.155C674.34 354.285 686.41 397.045 685.2 435.335C685.05 440.205 682.95 448.815 683.24 453.265C683.4 455.775 688.25 461.565 689.69 464.805C703.77 496.595 681.27 537.905 646.65 541.515C642.4 541.955 636.78 540.885 633.04 541.875C629.99 542.685 618.62 550.935 614.35 553.135C574.33 573.765 506 588.975 464.9 565.765C461.59 563.895 452.77 556.375 450.88 555.825C447.53 554.855 441.56 555.825 437.39 555.335C419.06 553.135 404.51 542.455 392.12 529.685C390.72 528.245 391.17 526.125 389.2 526.665C379.92 539.485 366.56 548.225 351.51 552.885C347.06 554.265 340.49 554.585 336.85 556.195C333.71 557.575 328.04 563.155 324.1 565.405C293 583.195 252.63 577.925 218.93 571.125C155.74 558.375 102.86 526.955 86.4704 461.015C84.2404 452.035 83.4404 442.805 81.1904 433.855V397.925C84.1604 386.315 85.3804 374.395 88.4604 362.775C96.0804 334.105 110.25 307.295 128.96 284.435C116.64 246.665 121.26 210.045 139.58 175.335C141.22 172.235 147.53 163.865 147.93 161.645C148.45 158.775 145.31 148.225 145.1 143.905C143.57 111.385 165.62 81.2047 196.22 71.2747L209.98 67.5647H231.94L231.95 67.5647Z" fill="#F49C1A"/>
<path d="M412.613 155.513C414.017 156.785 414.768 158.301 413.242 159.665C411.481 161.332 409.402 162.826 407.524 164.379C403.55 167.511 400.398 171.676 396.789 175.217C396.227 175.753 395.38 176.582 394.688 176.394C394.265 176.293 393.871 175.837 393.414 175.163C392.157 173.313 390.668 170.747 389.423 168.796C384.854 161.976 378.973 156.124 373.255 150.384C370.551 148.044 368.904 147.01 373.498 145.608C386.854 140.756 402.469 146.123 412.554 155.45L412.617 155.508L412.613 155.513Z" fill="#FAE4B7"/>
<path d="M432.52 395.198C430.273 395.282 427.918 395.211 425.646 395.19C424.719 395.182 423.017 395.198 422.774 395.031C422.569 394.893 423.109 394.843 423.365 394.801C424.983 394.679 426.668 394.591 428.261 394.466C429.817 394.466 431.502 394.139 433.141 394.437C434.034 394.675 433.694 395.081 432.608 395.186L432.524 395.194L432.52 395.198Z" fill="#FEF5E6"/>
<path d="M441.508 395.148C441.613 395.228 441.101 395.198 440.372 395.203C439.294 395.203 437.739 395.203 436.582 395.207C436.067 395.207 433.426 395.307 434.746 394.801C435.497 394.625 436.339 394.621 437.11 394.508C438.079 394.399 438.829 394.244 439.835 394.562C440.359 394.725 441.026 394.931 441.491 395.136L441.508 395.148Z" fill="#FEF5E6"/>
<path d="M429.334 394.34C429.389 394.34 429.523 394.34 429.611 394.34C429.695 394.34 429.762 394.332 429.737 394.386C429.687 394.474 429.552 394.759 429.536 394.75C429.51 394.746 429.376 394.449 429.318 394.349L429.334 394.34Z" fill="#FAE4B7"/>
<path d="M673.571 479.636C670.343 463.87 660.203 464.318 662.727 457.093C671.111 405.053 655.039 348.09 619.01 309.941C617.048 308.002 613.837 305.804 616.033 302.82C635.5 264.352 630.806 217.796 603.751 184.54C602.095 182.933 602.452 180.961 603.453 179.065C621.076 137.646 583.995 92.2202 540.772 104.205C527.509 107.827 515.013 116.463 508.813 128.888C507.157 131.425 503.581 130.34 501.02 130.387C475.68 129.143 451.321 136.461 429.666 148.643C427.742 149.756 426.572 149.962 424.824 148.254C408.203 129.926 382.104 121.985 360.327 136.247C358.584 137.399 356.848 136.942 355.331 135.774C353.608 134.552 351.826 133.355 350.045 132.312C326.306 118.535 296.359 111.318 269.011 114.428C267.712 114.123 266.764 112.946 266.06 111.82C261.34 104.252 254.432 98.1019 246.71 93.5849C240.301 89.1642 233.011 87.2971 225.189 86.8115C210.123 85.4133 194.282 89.9889 183.115 99.701C171.952 109.237 163.883 124.279 164.478 139.4C164.356 148.166 165.58 153.767 169.479 161.503C170.342 163.462 169.592 165.036 168.313 166.548C162.734 173.359 157.653 180.89 153.763 188.743C147.102 202.319 142.454 218.278 141.276 232.909C140.186 250.487 143.175 268.655 150.305 284.509C151.466 286.774 151.24 288.888 149.345 290.554C146.855 292.978 144.432 295.402 142.248 298.056C103.213 345.851 87.7577 417.608 111.354 475.42C135.914 534.459 204.234 552.117 264.224 557.317C286.399 558.673 310.796 554.796 326.39 537.469C327.517 536.364 328.859 535.715 330.456 535.657C347.119 536.327 363.312 527.397 373.431 513.976C388.476 495.175 387.864 465.733 365.974 452.366C364.444 450.847 368.271 449.842 369.185 449.105C371.105 448.004 371.989 447.36 374.312 445.48C376.349 443.877 378.646 441.997 380.637 440.431C382.423 438.702 383.823 439.657 385.55 440.804C394.906 446.845 405.395 450.37 416.017 453.12C418.306 454.066 415.74 455.142 414.747 455.837C402.376 463.477 396.101 478.614 397.17 493.024C399.295 520.021 428.81 539.726 454.712 535.426C459.504 534.564 460.409 536.896 463.155 539.927C488.549 564.09 529.374 558.485 560.063 551.556C585.525 546.194 607.268 535.665 628.169 520.749C631.317 519.46 634.754 521.315 637.961 521.608C659.474 523.441 677.78 500.195 673.588 479.707L673.571 479.627V479.636ZM370.677 147.086C370.891 146.629 371.767 146.215 372.379 146.001C374.898 145.101 377.468 144.21 380.155 143.979C391.645 142.807 403.672 147.395 412.064 155.006C415.308 157.849 414.298 158.975 411.297 161.34C409.763 162.6 408.17 163.801 406.66 165.087C403.102 168.055 400.167 171.902 396.843 175.155C396.219 175.741 395.342 176.67 394.55 176.344C394.16 176.185 393.791 175.724 393.364 175.088C391.318 172.04 389.444 168.473 387.126 165.568C382.398 159.59 377.254 154.056 371.671 148.995C371.138 148.534 370.338 147.743 370.656 147.127L370.677 147.086ZM378.164 377.733C375.724 379.776 372.656 386.135 370.036 386.508C361.786 384.904 353.134 385.884 344.755 385.499C318.002 383.594 290.054 371.525 270.16 353.373C267.196 350.522 262.157 350.347 259.646 353.838C255.865 359.314 262.011 363.789 265.876 366.937C284.601 383.309 308.008 392.758 332.397 397.011C339.154 397.966 346.197 397.149 352.904 396.894C376.16 396.078 388.694 414.506 369.797 431.824C356.555 442.725 337.859 445.731 321.137 445.853C285.175 445.446 248.349 432.796 221.785 408.511C220.477 407.452 219.32 406.69 217.845 406.334C212.395 404.752 208.623 411.847 212.479 415.782C246.048 449.624 297.843 465.122 344.889 457.993C347.84 457.683 350.3 458.344 352.853 459.68C356.974 461.827 360.893 463.975 363.983 467.299C379.12 483.558 366.003 511.246 347.006 518.79C344.964 519.468 337.247 523.186 339.993 517.945C348.07 502.133 342.671 479.083 324.805 472.854C313.571 468.839 301.909 473.846 291.647 478.342C288.545 479.858 287.3 477.689 285.46 475.508C277.236 466.876 265.62 459.219 255.174 454.25C250.806 452.446 246.216 449.57 241.387 450.349C237.618 450.989 235.832 455.883 237.664 458.943C239.14 461.191 242.38 461.995 244.765 462.924C258.783 468.68 271.95 477.785 280.589 490.34C281.989 492.366 283.628 494.518 286.051 495.1C289.455 496.059 292.628 493.802 295.37 492.006C298.061 490.273 300.572 488.745 303.594 487.577C312.905 483.529 327.069 485.677 329.936 495.987C332.204 504.498 326.633 515.969 322.081 523.006C301.54 549.991 261.814 543.887 232.99 538.83C192.995 531.152 156.375 519.05 133.462 486.049C96.2421 427.064 116.896 340.927 164.956 294.116C170.908 288.419 164.017 280.729 161.615 274.897C147.626 240.8 157.012 194.307 184.88 169.57C187.173 167.456 188.263 164.685 186.816 161.775C185.672 159.042 183.417 155.471 182.063 152.679C175.788 138.721 182.277 119.816 193.98 110.615C212.387 96.2432 238.046 98.9308 252.143 117.769C254.775 121.717 256.071 131.236 262.786 130.227C309.71 122.353 362.428 143.67 384.318 186.793C387.013 190.799 383.454 194.47 382.029 198.167C374.433 215.083 372.647 232.084 371.31 250.437C371.201 255.833 371.092 261.12 372.174 266.42C372.547 276.68 374.999 287.209 377.581 297.084C378.327 300.438 381.019 304.293 378.78 307.571C370.522 319.318 357.397 328.339 344.528 334.28C340.009 336.875 329.077 337.825 328.297 343.577C327.937 345.809 329.102 348.166 331.106 349.371C334.723 351.703 339.699 348.919 342.847 352.201C345.333 354.236 347.982 356.471 350.791 358.003C355.595 360.339 373.528 368.883 381.132 372.576C383.089 373.572 379.401 376.235 378.227 377.666L378.168 377.725L378.164 377.733ZM367.353 352.323C363.74 350.497 360.08 348.417 356.446 346.487C355.695 346.064 354.551 345.398 354.949 344.444C355.134 344.034 355.633 343.623 356.249 343.251C358.387 342.033 360.768 340.965 362.889 339.613C371.776 334.041 379.048 327.548 385.839 319.808C386.724 318.853 387.374 318.937 388.044 320.025C392.995 328.021 400.624 335.866 407.956 341.514C410.525 343.427 413.959 345.156 416.386 346.968C417.681 347.994 418.423 348.793 416.927 349.861C414.042 351.753 410.861 353.608 407.809 355.261C403.462 357.643 399.614 361.252 395.179 363.42C392.073 364.886 389.113 362.545 386.426 361.227C380.189 358.296 373.641 355.521 367.424 352.356L367.349 352.318L367.353 352.323ZM628.274 500.948C600.473 531.881 542.788 546.173 501.804 542.639C483.846 540.283 466.303 529.976 461.461 511.657C459.868 505.8 459.177 498.524 463.155 493.513C469.719 486.535 480.975 488.456 488.889 492.01C494.078 494.25 500.442 500.534 504.437 493.065C506.935 489.202 508.704 484.739 511.571 481.126C520.999 469.099 535.063 461.907 550.015 460.442C556.856 459.253 557.217 450.491 550.233 449.252C529.144 447.615 510.314 461.966 498.392 477.978C497.201 479.787 495.244 480.666 493.219 479.757C488.981 478.271 485.074 477.17 480.547 476.316C453.773 470.535 439.99 496.138 449.82 519.653C450.231 520.829 450.294 521.695 449.716 522.102C448.823 522.658 447.85 522.466 446.668 522.453C442.019 522.039 437.11 521.201 432.738 519.385C417.048 513.281 406.568 496.272 412.424 479.678C414.822 471.845 423.566 463.393 431.988 463.28C443.696 463.452 437.32 456.984 444.119 457.16C445.913 457.218 447.687 457.428 449.46 457.352C454.335 456.95 459.81 457.289 464.651 456.988C468.097 456.653 473.404 455.791 477.16 455.343C503.141 450.96 529.362 441.26 548.351 422.723C552.383 418.361 550.443 412.086 544.251 411.856C540.642 412.266 538.399 415.941 535.461 417.746C496.656 445.559 435.425 453.518 393.02 429.25C389.226 427.249 390.09 425.913 390.983 422.242C394.215 404.672 384.884 401.197 391.23 398.38C397.736 394.989 405.315 393.168 412.684 393.315C415.862 393.507 418.981 393.93 422.158 393.951C425.109 394.37 427.809 394.608 430.739 394.344C455.764 394.265 481.784 388.044 499.41 369.31C500.63 367.942 501.888 366.493 502.517 364.764C504.277 359.586 498.694 356.149 493.906 358.25C491.945 359.012 490.255 360.515 488.679 361.917C483.179 366.845 479.47 370.043 473.614 372.89C450.508 384.092 426.056 380.664 401.412 382.003C398.063 382.079 395.129 383.318 391.771 384.197C387.109 385.16 393.821 380.5 394.647 379.692C404.808 371.412 416.688 364.605 427.897 357.949C432.164 355.161 435.3 357.283 440.137 357.706C444.174 358.091 447.599 354.663 446.651 350.644C445.985 347.667 443.143 346.277 440.451 345.105C418.415 335.77 400.528 320.385 392.966 300.505C381.052 267.831 380.361 226.198 399.253 195.554C407.348 182.786 418.695 172.316 431.439 164.228C451.74 151.469 475.68 143.682 499.817 145.047C503.057 145.432 506.101 145.696 509.387 145.809C513.474 146.508 516.618 145.662 519.096 141.949C520.253 140.367 521.25 138.52 522.198 136.766C530.514 119.159 553.587 113.03 570.467 121.319C591.054 130.968 598.805 156.249 588.254 176.339C586.887 178.893 585.189 182.058 585.91 184.946C586.212 186.098 586.828 186.968 587.788 187.952C615.757 212.957 620.703 259.868 605.084 292.618C602.514 298.248 595.564 307.433 601.81 312.787C649.535 353.063 669.975 450.21 628.328 500.898L628.278 500.957L628.274 500.948ZM649.346 506.018C647.921 506.813 642.266 509.032 640.992 507.822C640.732 507.508 641.147 506.671 641.482 506.194C642.69 504.41 643.951 502.686 645.205 500.927C650.428 493.89 654.029 485.819 657.051 477.626C657.407 476.71 658.003 474.964 658.879 476.538C664.454 486.501 659.637 500.647 649.422 505.976L649.346 506.014V506.018Z" fill="#EF7C1B"/>
<path d="M371.449 263.393C372.517 265.532 372.174 268.731 372.446 271.138C373.259 279.657 375.376 288.678 377.527 296.934C378.164 300.044 380.537 303.418 379.275 306.625C377.481 309.932 374.651 312.804 372.061 315.554C363.203 324.316 351.65 331.739 340.064 336.071C335.411 337.834 326.453 339.358 328.532 346.211C330.364 351.385 335.801 350.146 339.967 350.61C341.724 350.983 342.99 352.406 344.361 353.482C345.727 354.562 347.534 355.889 348.657 356.71C355.607 360.75 374.882 369.378 380.817 372.429C383.634 373.476 378.512 376.971 377.732 378.19C375.867 380.224 374.245 382.594 372.509 384.812C371.444 386.319 369.793 386.905 368.057 386.298C365.919 385.733 363.719 385.65 361.434 385.553C356.827 385.407 352.023 385.712 347.433 385.612C319.603 384.461 290.604 371.99 269.954 353.214C268.282 351.862 266.525 351.037 264.425 351.217C260.183 351.381 257.182 356.119 259.06 359.967C260.485 362.96 263.482 364.756 265.88 366.937C281.591 380.425 300.182 389.647 320.387 394.42C324.956 395.479 329.328 396.463 333.881 397.195C342.114 398.137 350.175 396.366 358.345 397.074C375.64 398.811 385.483 412.283 374.069 427.307C365.337 438.367 350.129 442.759 336.601 444.814C295.978 449.482 252.445 436.052 222.137 408.796C219.098 405.652 213.23 404.806 211.402 409.511C209.168 414.627 214.839 417.984 217.975 421.057C251.602 451.14 300.4 464.821 345.065 457.989C347.11 457.817 349.076 458.051 350.866 458.784C355.666 460.915 361.149 463.971 364.57 467.944C378.495 484.031 366.276 510.158 348.318 518.212C346.28 519.008 337.012 523.533 340.005 517.949C348.653 501.292 341.732 476.417 321.984 472.046C314.074 470.238 306.042 472.444 298.69 475.378C296.292 476.32 293.953 477.384 291.664 478.346C290.231 478.979 288.612 479.188 287.468 477.836C279.13 467.952 266.571 459.764 255.262 454.288C251.405 452.609 247.364 450.399 243.172 450.181C238.607 449.725 235.518 454.979 237.597 458.818C238.813 460.856 241.609 461.76 243.797 462.577C256.289 467.32 267.733 475.127 276.607 485.057C280.602 489.361 283.574 497.98 290.914 494.635C295.269 492.454 298.958 489.269 303.607 487.59C312.942 483.525 327.153 485.702 329.974 496.08C332.305 504.318 326.218 517.292 321.469 523.856C301.314 549.199 263.486 544.075 235.665 539.324C198.621 532.655 160.009 520.988 136.451 490.206C95.9402 433.423 115.319 347.814 159.917 298.906C162.214 296.113 165.92 294.405 167.068 290.826C168.351 285.07 163.686 279.983 161.623 274.914C147.744 241.08 156.878 194.885 184.326 170.127C185.458 169.11 186.586 167.791 187.097 166.51C187.818 164.831 187.483 163.232 186.661 161.419C184.767 157.103 181.312 152.624 180.373 147.852C173.407 107.065 225.646 84.4588 251.657 117.024C254.557 120.695 255.429 129.562 261.135 130.219C267.984 130.407 274.75 128.624 281.57 128.44C321.297 127.841 373.771 152.197 385.047 191.837C379.602 202.6 375.716 214.43 373.871 225.679C372.79 231.531 372.455 238.238 371.918 244.513C371.65 246.083 371.055 246.363 370.916 247.611C370.757 249.101 370.799 251.031 370.363 252.459C369.759 254.196 369.571 251.973 369.411 251.178C368.732 244.346 358.538 239.36 354.803 246.648C352.811 250.663 352.707 255.787 354.58 259.873C356.567 264.917 363.094 269.434 367.366 264.31C368.728 262.749 369.457 260.685 369.583 258.684C369.755 257.683 369.696 256.695 370.12 256.825C370.665 257.834 370.707 261.79 370.916 262.866C370.95 262.996 370.971 263.159 371.059 263.251C371.168 263.364 371.298 263.297 371.436 263.389L371.453 263.397L371.449 263.393ZM292.985 242.571C296.451 236.915 297.474 228.312 293.475 222.648C292.368 221.099 290.977 220.061 289.082 219.282C273.664 212.722 262.602 237.024 273.513 247.347C275.911 249.687 279.273 250.382 282.589 250.018C286.609 249.633 290.784 245.706 292.947 242.629L292.989 242.566L292.985 242.571ZM346.943 257.662C344.688 255.858 342.214 254.146 339.439 253.237C325.824 248.373 305.619 250.24 308.88 268.559C310.213 274.42 314.661 278.966 319.653 282.19C324.411 284.865 323.59 285.17 322.005 289.88C321.012 292.576 319.695 295.494 318.287 297.223C317.432 298.29 316.61 298.801 315.122 299.253C312.557 299.986 309.815 300.869 307.233 299.86C301.146 297.683 293.349 293.627 289.828 288.218C287.762 284.932 287.372 280.067 284.324 277.472C281.775 275.42 277.177 276.538 276.406 279.925C275.492 283.278 276.427 287.305 277.785 290.479C284.882 305.779 307.426 314.646 323.808 315.37C336.572 315.843 352.971 313.398 360.902 303.628C362.809 301.229 364.415 297.846 363.517 294.841C362.411 291.069 357.951 290.223 354.983 292.856C353.373 294.15 352.392 295.929 351.009 297.415C349.869 298.679 348.469 299.655 346.934 300.383C342.139 302.719 335.331 303.77 330.075 303.372C327.735 303.247 328.02 301.878 328.855 300.203C330.603 296.494 332.17 292.81 333.172 288.821C333.361 288.134 333.633 287.402 334.137 286.933C334.795 286.25 336.111 286.121 337.184 286.07C348.54 285.555 357.297 275.885 353.134 264.683C352.103 261.581 349.462 259.546 347.006 257.704L346.943 257.654V257.662Z" fill="#FAE4B7"/>
<path d="M371.063 246.309C371.252 248.159 371.164 250.127 371.172 252.002C371.029 256.122 371.235 260.074 371.025 264.067C370.883 264.988 370.723 264.415 370.66 263.795C370.552 262.418 370.514 260.99 370.375 259.596C370.317 257.754 369.78 256.038 369.851 254.225C370.157 252.044 370.811 249.809 370.631 247.611C370.585 247.201 370.74 244.643 371.05 246.25L371.059 246.313L371.063 246.309Z" fill="#FEF5E6"/>
<path d="M371.059 260.814V260.53C371.059 260.392 371.059 260.362 371.059 260.434C371.059 260.551 371.059 260.714 371.059 260.802V260.814Z" fill="#FAE4B7"/>
<path d="M371.059 257.884V257.599C371.059 257.461 371.059 257.428 371.059 257.503C371.059 257.62 371.059 257.792 371.059 257.872V257.884Z" fill="#FAE4B7"/>
<path d="M347.006 257.708C349.458 259.55 352.099 261.585 353.134 264.687C357.288 275.893 348.544 285.555 337.184 286.075C335.046 286.091 333.625 286.686 333.172 288.825C332.17 292.814 330.603 296.498 328.855 300.207C328.016 301.861 327.752 303.268 330.075 303.376C336.79 303.678 345.346 302.585 350.544 297.897C352.342 296.155 353.465 293.807 355.599 292.4C358.558 290.236 362.574 291.462 363.517 294.841C364.419 297.851 362.809 301.229 360.902 303.628C352.971 313.398 336.572 315.843 323.808 315.37C307.43 314.654 284.877 305.779 277.785 290.479C276.418 287.309 275.492 283.278 276.406 279.925C277.185 276.538 281.767 275.42 284.324 277.472C287.367 280.063 287.766 284.936 289.828 288.218C293.32 293.597 301.176 297.708 307.233 299.86C309.815 300.873 312.557 299.986 315.122 299.253C316.61 298.797 317.432 298.29 318.287 297.223C319.695 295.498 321.012 292.58 322.005 289.88C323.594 285.166 324.407 284.861 319.653 282.19C314.661 278.962 310.213 274.42 308.88 268.559C305.615 250.248 325.828 248.364 339.439 253.237C342.214 254.142 344.683 255.858 346.939 257.662L347.001 257.712L347.006 257.708Z" fill="#493F29"/>
<path d="M292.943 242.633C290.775 245.71 286.609 249.633 282.585 250.022C279.269 250.382 275.911 249.692 273.509 247.351C262.598 237.028 273.66 212.722 289.078 219.287C290.972 220.061 292.364 221.103 293.471 222.652C297.47 228.316 296.447 236.915 292.98 242.575L292.938 242.638L292.943 242.633Z" fill="#493F29"/>
<path d="M369.721 255.431C369.512 257.595 369.768 259.889 368.917 261.924C367.03 266.299 363.149 268.27 358.877 265.633C356.89 264.411 355.473 262.313 354.371 260.145C350.644 253.078 354.17 238.69 364.146 243.839C366.154 244.994 367.923 246.707 368.829 248.779C369.571 250.818 369.596 253.179 369.721 255.356V255.431Z" fill="#493F29"/>
<path d="M646.064 391.079C639.076 360.875 625.26 332.986 601.588 312.57C599.936 311.121 599.06 309.091 599.303 306.83C600.045 300.199 604.472 294.79 606.899 288.779C620.032 256.498 614.851 211.973 587.792 187.944C586.996 187.123 586.401 186.349 586.082 185.482C584.544 180.329 589.373 175.762 590.584 170.91C597.56 151.167 588.857 129.809 570.015 121.097C553.155 113.122 530.384 119.326 522.16 136.838C520.043 140.622 517.482 145.985 512.623 145.997C506.583 145.867 500.572 144.909 494.56 144.833C488.206 145.059 481.867 145.457 475.605 146.52C445.44 152.766 416.164 169.306 399.258 195.554C380.361 226.194 381.056 267.839 392.966 300.505C400.511 320.369 418.423 335.778 440.451 345.105C443.143 346.277 445.985 347.667 446.651 350.648C447.611 354.679 444.153 358.091 440.137 357.71C436.93 357.597 434.155 356.111 431.456 356.576C430.261 356.764 429.154 357.292 427.901 357.957C423.504 360.343 418.733 363.504 414.336 366.133C406.405 370.889 398.465 376.276 391.477 382.317C390.937 382.748 389.767 383.95 390.232 384.247C390.555 384.511 391.88 384.201 392.551 384.004C394.5 383.464 396.734 382.652 398.428 382.355C422.812 380.111 446.609 384.431 469.975 374.514C477.558 371.508 482.219 367.799 488.759 361.863C490.331 360.465 492.029 358.97 493.995 358.229C498.727 356.207 504.227 359.577 502.55 364.697C501.397 367.694 498.765 369.997 496.539 372.232C481.264 386.83 461.876 391.602 441.47 394.081C441.168 394.139 440.934 394.181 440.69 394.282C439.944 394.587 440.808 394.968 439.965 395.111C438.653 395.24 436.855 395.232 435.593 395.035C434.834 394.868 434.18 394.696 433.384 394.851C430.37 395.337 427.025 395.387 423.998 394.989C423.81 394.868 424.589 394.503 423.927 394.257C422.112 393.746 420.121 393.98 418.247 393.809C416.31 393.666 414.39 393.348 412.441 393.319C406.229 393.135 392.79 395.609 388.987 400.364C388.753 401.105 389.059 402.202 389.377 403.023C390.161 405.045 390.832 407.037 391.15 409.156C391.851 413.522 391.8 417.905 390.987 422.254C390.212 425.67 389.096 427.282 393.024 429.258C437.001 454.941 504.65 444.471 542.625 412.237C547.362 410.441 552.342 415.703 549.877 420.362C547.915 424.235 543.79 427.098 540.445 429.744C523.707 442.282 504.315 449.875 483.808 454.2C478.04 455.56 470.369 456.017 464.676 457.105C464.328 457.294 464.727 457.541 464.354 457.704C463.892 457.863 463.532 457.859 462.937 457.884C457.902 457.75 452.658 458.755 447.741 457.762C438.594 455.703 442.04 459.198 438.339 462.158C436 463.464 432.793 463.096 430.185 463.431C424.157 464.188 418.448 469.354 414.906 474.315C403.169 494.137 418.004 517.296 439.24 521.369C441.562 521.863 444.379 522.315 446.676 522.462C448.839 522.591 451.007 522.591 449.829 519.661C438.846 492.458 457.357 468.111 486.042 477.555C488.47 478.183 490.872 478.941 493.227 479.761C495.244 480.607 497.218 479.849 498.4 477.982C509.027 463.678 524.172 451.646 542.495 449.335C546.41 448.892 551.683 448.176 554.379 451.663C556.605 455.041 554.634 459.504 550.585 460.287C547.902 461.091 544.608 461.229 541.874 461.773C529.202 464.632 516.371 473.285 509.307 484.446C507.367 487.711 505.648 491.634 503.347 494.61C499.297 499.697 493.475 493.861 489.048 492.082C481.276 488.565 470.646 486.66 463.758 492.86C458.774 498.24 459.898 506.596 461.901 513.084C467.892 532.714 488.247 542.116 507.568 543.272C548.984 543.883 602.192 531.412 629.875 499.06C653.442 469.258 653.924 426.575 646.098 391.159L646.081 391.079H646.064ZM398.813 267.705C396.156 263.427 394.89 254.698 401.664 254.866C404.28 254.753 405.684 256.842 406.782 258.914C410.299 266.051 420.527 266.441 423.629 258.705C424.77 256.406 425.855 253.459 428.609 252.919C431.409 252.375 434.293 254.234 434.625 257.189C436.477 275.261 408.195 283.148 398.855 267.776L398.813 267.705ZM497.503 304.373C487.443 327.448 440.824 336.666 425.013 316.425C422.179 312.138 421.823 306.319 428.064 305.792C430.546 305.666 432.139 307.504 433.749 309.095C434.809 310.154 435.949 311.088 437.261 311.803C439.634 313.114 442.761 314.144 445.478 314.512C446.869 314.621 450.42 315.023 449.179 312.687C448.357 310.807 446.58 306.83 445.641 304.72C445.063 303.113 443.977 302.736 442.367 302.652C436.897 302.351 430.131 299.726 427.427 294.924C421.999 285.886 428.957 275.144 439.257 272.293C448.408 269.543 462.224 268.701 466.546 278.862C469.107 283.868 467.284 288.904 463.725 293.107C461.813 295.402 459.407 297.369 457.03 298.801C455.76 299.5 455.119 300.739 455.618 302.162C457.454 308.32 461.981 312.875 468.634 312.243C476.384 311.259 486.135 304.067 487.95 296.189C488.369 293.685 488.595 290.575 491.178 289.273C492.636 288.465 494.514 288.364 496.015 289.114C500.727 291.575 499.272 299.986 497.532 304.306L497.503 304.373ZM509.257 253.555C500.375 266.022 471.098 266.01 470.055 248.147C470.138 246.548 470.616 245.141 471.715 244.191C472.918 243.127 475.11 242.889 476.657 243.722C478.007 244.404 479.117 245.828 480.207 246.903C485.732 252.999 496.795 251.919 500.651 244.605C501.984 242.298 502.433 239.176 504.822 237.673C508.184 235.584 512.032 238.322 512.623 241.997C513.281 245.999 511.5 250.319 509.307 253.493L509.261 253.555H509.257Z" fill="#FAE4B7"/>
<path d="M658.715 476.291C665.049 487.033 658.82 502.874 646.94 507.077C645.611 507.567 644.194 507.944 642.794 508.115C642.199 508.199 641.302 508.199 641.067 507.914C640.309 507.14 642.849 504.435 643.31 503.573C644.991 501.216 646.756 498.834 648.298 496.381C652.239 490.148 654.88 483.123 657.642 476.324C657.969 475.776 658.313 475.747 658.682 476.245L658.715 476.291Z" fill="#FAE4B7"/>
<path d="M465.699 457.737C465.485 457.909 464.697 457.88 464.282 457.884C459.353 457.75 453.815 458.403 448.995 458.135C448.37 458.085 447.8 458.035 447.213 457.876C447.037 457.825 446.953 457.771 446.966 457.729C446.978 457.67 447.171 457.62 447.502 457.578C448.865 457.453 450.453 457.348 451.677 457.222C454.155 457.005 457.051 457.155 459.6 457.176C461.348 457.176 463.452 456.942 465.2 457.402C465.578 457.511 465.766 457.629 465.712 457.716L465.703 457.729L465.699 457.737Z" fill="#FEF5E6"/>
<path d="M463.293 457.143C463.293 457.143 462.652 457.206 462.459 457.114C462.501 457.068 462.74 456.925 462.886 456.821C463.05 456.712 463.079 456.682 463.151 456.833C463.197 456.921 463.255 457.034 463.297 457.122V457.143H463.293Z" fill="#FAE4B7"/>
<path d="M449.43 457.541C449.116 457.616 448.563 457.587 448.248 457.541C448.118 457.419 448.278 457.268 448.429 457.181C448.764 456.996 449.389 457.097 449.451 457.507L449.43 457.541Z" fill="#FAE4B7"/>
<path d="M451.971 457.135C452.025 457.135 452.159 457.135 452.247 457.135C452.331 457.135 452.398 457.126 452.373 457.181C452.323 457.268 452.189 457.553 452.172 457.545C452.147 457.541 452.013 457.243 451.954 457.143L451.971 457.135Z" fill="#FAE4B7"/>
<path d="M458.678 457.135C458.711 457.151 459.131 457.088 459.08 457.181C459.03 457.268 458.896 457.553 458.879 457.545C458.854 457.541 458.72 457.243 458.661 457.143L458.678 457.135Z" fill="#FAE4B7"/>
<path d="M497.503 304.373C487.443 327.448 440.824 336.666 425.013 316.425C422.179 312.138 421.823 306.319 428.064 305.792C430.546 305.666 432.139 307.504 433.749 309.095C434.809 310.154 435.949 311.088 437.261 311.803C439.634 313.114 442.761 314.144 445.478 314.512C446.869 314.621 450.42 315.023 449.179 312.687C448.357 310.807 446.58 306.83 445.641 304.72C445.063 303.113 443.977 302.736 442.367 302.652C436.897 302.351 430.131 299.726 427.427 294.924C421.999 285.886 428.957 275.144 439.257 272.293C448.408 269.543 462.224 268.701 466.546 278.862C469.107 283.868 467.284 288.904 463.725 293.107C461.813 295.402 459.407 297.369 457.03 298.801C455.76 299.5 455.119 300.739 455.618 302.162C457.454 308.32 461.981 312.875 468.634 312.243C476.384 311.259 486.135 304.067 487.95 296.189C488.369 293.685 488.595 290.575 491.178 289.273C492.636 288.465 494.514 288.364 496.015 289.114C500.727 291.575 499.272 299.986 497.532 304.306L497.503 304.373Z" fill="#493F29"/>
<path d="M509.257 253.555C500.375 266.022 471.098 266.01 470.055 248.147C470.138 246.548 470.616 245.141 471.715 244.191C472.918 243.127 475.11 242.889 476.657 243.722C478.007 244.404 479.117 245.828 480.207 246.903C485.732 252.999 496.795 251.919 500.651 244.605C501.984 242.298 502.433 239.176 504.822 237.673C508.184 235.584 512.032 238.322 512.623 241.997C513.281 245.999 511.5 250.319 509.307 253.493L509.261 253.555H509.257Z" fill="#493F29"/>
<path d="M434.742 260.182C432.328 279.866 398.558 282.148 396.684 260.693C396.571 258.118 397.313 255.774 399.937 255.088C401.148 254.761 402.523 254.778 403.642 255.259C406.308 256.549 406.92 260.329 409.264 262.154C412.273 264.791 417.333 265.181 420.628 262.744C422.854 261.128 423.68 258.315 424.975 256.021C426.572 252.773 430.018 251.81 432.935 254.003C434.679 255.448 434.91 257.989 434.75 260.103L434.742 260.186V260.182Z" fill="#493F29"/>
</svg>
