<svg width="393" height="404" viewBox="0 0 393 404" fill="none" xmlns="http://www.w3.org/2000/svg">
<mask id="path-1-outside-1_480_7920" maskUnits="userSpaceOnUse" x="-30" y="0" width="454" height="440" fill="black">
<rect fill="white" x="-30" width="454" height="440"/>
<path d="M63.6484 23.0153C65.464 22.3464 68.8086 21.3908 71.0543 20.913C73.5866 20.3396 77.2656 20.0052 80.8491 20.0052C84.2893 19.9574 88.2072 20.2441 90.644 20.7219C92.8897 21.1519 96.3298 22.0597 98.2888 22.7764C100.248 23.4453 103.497 24.9265 105.456 26.0732C107.415 27.1722 110.712 29.5134 116.445 34.2914L123.517 32.858C127.387 32.0935 133.55 31.0901 137.229 30.6601C141.53 30.1823 147.645 29.8956 154.43 29.8478C161.406 29.8478 167.187 30.1345 171.631 30.6601C175.31 31.1379 180.47 31.9024 183.098 32.4279C185.726 32.9535 190.217 34.0047 193.132 34.7692C195.999 35.5336 199.582 36.5848 203.643 38.066L205.077 36.5848C205.841 35.8203 208.326 33.9569 210.572 32.4279C212.817 30.9468 216.257 29.0356 218.216 28.2233C220.175 27.3633 223.711 26.2166 226.1 25.6432C229.445 24.7832 231.834 24.5443 236.85 24.5443C240.386 24.5443 244.591 24.7832 246.168 25.1176L246.381 25.1693C247.953 25.5502 250.19 26.0922 251.423 26.5032C252.761 26.8855 255.293 27.8889 257.157 28.6533C259.02 29.4656 262.317 31.2812 264.563 32.7624C266.808 34.2436 270.249 37.0626 272.208 39.0693C274.214 41.0283 276.938 44.3729 278.323 46.4752C279.709 48.5775 281.477 51.9221 282.289 53.8811C283.149 55.8401 284.344 59.5191 284.965 62.0037C285.968 65.7305 286.159 67.7373 286.207 73.232C286.207 76.911 286.016 81.2112 285.682 82.7879C285.395 84.3647 284.678 87.0404 284.105 88.7604C283.531 90.4805 282.241 93.5862 281.19 95.6885C280.139 97.7908 278.658 100.371 276.603 103.333L278.897 110.022C280.139 113.702 281.716 119.196 282.432 122.206C283.101 125.216 284.009 130.042 284.439 132.957C284.869 135.871 285.347 141.318 285.825 152.069L288.931 152.451C290.651 152.642 294.425 153.263 297.292 153.789C300.159 154.314 304.937 155.509 307.804 156.465C310.67 157.372 313.872 158.567 316.643 159.952L318.697 158.806C319.796 158.137 322.759 156.942 325.243 156.082C329.066 154.792 330.69 154.506 335.516 154.362C340.103 154.171 342.205 154.314 346.027 155.127C349.372 155.843 352.239 156.847 355.583 158.471C358.211 159.761 361.795 162.055 363.611 163.488C365.378 164.969 367.911 167.597 369.249 169.365C370.586 171.181 372.498 174.334 373.501 176.437C374.504 178.539 375.699 181.549 376.129 183.126C376.559 184.702 377.037 188.477 377.18 191.487C377.371 195.644 377.276 197.937 376.607 201.043C376.177 203.289 375.269 206.395 374.648 207.971C373.979 209.548 372.593 212.271 369.679 217.288L370.586 220.251C371.064 221.923 371.876 225.076 372.354 227.322C373.023 230.476 373.262 233.486 373.262 240.7C373.262 248.775 373.119 250.686 372.115 255.034C371.494 257.806 370.347 261.867 369.583 264.113C368.771 266.358 367.624 269.13 365.952 272.474L368.58 277.013C370.061 279.498 372.593 284.371 374.218 287.764C375.89 291.156 377.992 296.125 378.9 298.753C379.856 301.381 381.098 305.156 381.671 307.115C382.197 309.073 383.2 313.278 383.821 316.432C384.443 319.585 385.207 325.271 386.067 336.021L389.412 337.933C391.227 338.984 393.951 341.134 395.432 342.711C396.961 344.287 398.824 346.628 399.589 347.966C400.305 349.256 401.452 351.741 402.073 353.461C402.886 355.659 403.316 358 403.459 361.584C403.698 365.406 403.554 367.508 402.886 370.423C402.408 372.621 401.07 376.109 399.828 378.545C398.155 381.842 396.818 383.706 394.046 386.429C391.562 388.961 389.316 390.634 386.64 392.019C384.538 393.118 381.528 394.313 379.951 394.743C378.374 395.173 375.173 395.507 372.784 395.507C370.395 395.507 367.194 395.173 362.75 394.169L360.123 396.558C358.689 397.896 355.106 400.572 352.239 402.483C349.372 404.394 344.737 407.022 341.966 408.36C339.195 409.65 334.369 411.561 331.216 412.613C328.062 413.664 322.998 415.097 319.987 415.766C316.977 416.435 311.053 417.438 306.848 417.964C302.643 418.489 295.668 419.111 291.32 419.397C286.972 419.636 276.986 419.875 269.102 419.875C261.218 419.875 251.519 419.636 247.601 419.397C243.683 419.111 237.185 418.489 233.267 417.916C229.349 417.343 223.615 416.292 220.605 415.479C217.595 414.715 212.722 413.09 204.599 409.746L200.777 410.749C198.674 411.275 195.139 412.135 192.893 412.66C190.647 413.186 185.583 414.141 181.665 414.81C177.747 415.479 171.488 416.339 167.809 416.769C164.129 417.152 156.294 417.725 150.369 417.916C144.062 418.203 135.509 418.203 129.585 417.916C124.042 417.677 117.305 417.247 114.534 417.008C111.763 416.722 106.507 416.053 102.828 415.527C99.1488 415.002 94.0842 414.141 91.5996 413.616C89.1151 413.09 84.2415 411.944 80.8491 411.036C77.4568 410.176 71.7232 408.408 68.1875 407.166C64.6518 405.923 59.9215 404.155 57.6759 403.152C55.4302 402.149 52.229 400.668 50.5089 399.807C48.7888 398.947 45.2531 396.941 42.6252 395.364C39.9973 393.787 35.3627 390.634 32.3525 388.388C29.3424 386.142 24.3733 381.794 21.3632 378.784C18.3053 375.774 14.1962 371.14 12.2372 368.512C10.2782 365.884 7.36367 361.584 5.83471 358.956C4.25797 356.328 1.86898 351.693 0.531143 348.683C-0.854473 345.673 -2.76567 340.799 -3.72127 337.933C-4.67686 335.066 -5.96692 330.527 -6.58806 327.899C-7.2092 325.271 -8.1648 320.111 -8.69038 316.432C-9.16817 312.753 -9.74153 307.067 -9.93265 303.77C-10.076 300.473 -9.98043 294.023 -9.74153 289.436C-9.45485 284.849 -8.83371 278.064 -8.30814 274.385C-7.78256 270.706 -6.7314 264.782 -5.91914 261.246C-5.15466 257.71 -3.72127 252.215 -2.76567 249.062C-1.81007 245.908 0.148904 240.318 1.63008 236.639C3.06348 232.96 5.64359 227.131 7.26811 223.739C8.9404 220.346 12.0461 214.613 14.1484 211.077C16.2985 207.541 19.3086 202.859 23.7522 196.743L22.0321 192.108C21.0765 189.528 19.7864 185.371 19.1653 182.887C18.4964 180.402 17.6363 175.768 17.2541 172.614C16.6807 168.41 16.5374 164.683 16.7285 158.519C16.8719 153.311 17.3497 148.103 17.9708 144.663C18.4964 141.653 19.6909 136.588 20.5987 133.435C21.4587 130.281 23.2266 125.121 24.4689 121.967C25.7111 118.814 28.3868 112.794 30.3936 108.589C32.4003 104.384 34.8849 99.5587 37.6561 94.7329L35.8883 90.6716C34.9327 88.426 33.5948 84.5558 32.9259 82.0712C31.8748 78.1055 31.7314 76.5288 31.7314 69.6485C31.6836 62.6726 31.827 61.2392 32.9259 57.2257C33.5948 54.7412 34.8849 51.0621 35.7927 49.1031C36.6527 47.1441 38.4684 43.9429 39.7584 41.9839C41.0963 40.0249 43.6764 36.8715 45.492 35.0081C47.3077 33.0969 50.0311 30.7079 51.4645 29.6567C52.8979 28.6056 55.478 26.981 57.1981 26.0254C58.9182 25.0698 61.8327 23.732 63.6484 23.0153Z"/>
</mask>
<path d="M63.6484 23.0153C65.464 22.3464 68.8086 21.3908 71.0543 20.913C73.5866 20.3396 77.2656 20.0052 80.8491 20.0052C84.2893 19.9574 88.2072 20.2441 90.644 20.7219C92.8897 21.1519 96.3298 22.0597 98.2888 22.7764C100.248 23.4453 103.497 24.9265 105.456 26.0732C107.415 27.1722 110.712 29.5134 116.445 34.2914L123.517 32.858C127.387 32.0935 133.55 31.0901 137.229 30.6601C141.53 30.1823 147.645 29.8956 154.43 29.8478C161.406 29.8478 167.187 30.1345 171.631 30.6601C175.31 31.1379 180.47 31.9024 183.098 32.4279C185.726 32.9535 190.217 34.0047 193.132 34.7692C195.999 35.5336 199.582 36.5848 203.643 38.066L205.077 36.5848C205.841 35.8203 208.326 33.9569 210.572 32.4279C212.817 30.9468 216.257 29.0356 218.216 28.2233C220.175 27.3633 223.711 26.2166 226.1 25.6432C229.445 24.7832 231.834 24.5443 236.85 24.5443C240.386 24.5443 244.591 24.7832 246.168 25.1176L246.381 25.1693C247.953 25.5502 250.19 26.0922 251.423 26.5032C252.761 26.8855 255.293 27.8889 257.157 28.6533C259.02 29.4656 262.317 31.2812 264.563 32.7624C266.808 34.2436 270.249 37.0626 272.208 39.0693C274.214 41.0283 276.938 44.3729 278.323 46.4752C279.709 48.5775 281.477 51.9221 282.289 53.8811C283.149 55.8401 284.344 59.5191 284.965 62.0037C285.968 65.7305 286.159 67.7373 286.207 73.232C286.207 76.911 286.016 81.2112 285.682 82.7879C285.395 84.3647 284.678 87.0404 284.105 88.7604C283.531 90.4805 282.241 93.5862 281.19 95.6885C280.139 97.7908 278.658 100.371 276.603 103.333L278.897 110.022C280.139 113.702 281.716 119.196 282.432 122.206C283.101 125.216 284.009 130.042 284.439 132.957C284.869 135.871 285.347 141.318 285.825 152.069L288.931 152.451C290.651 152.642 294.425 153.263 297.292 153.789C300.159 154.314 304.937 155.509 307.804 156.465C310.67 157.372 313.872 158.567 316.643 159.952L318.697 158.806C319.796 158.137 322.759 156.942 325.243 156.082C329.066 154.792 330.69 154.506 335.516 154.362C340.103 154.171 342.205 154.314 346.027 155.127C349.372 155.843 352.239 156.847 355.583 158.471C358.211 159.761 361.795 162.055 363.611 163.488C365.378 164.969 367.911 167.597 369.249 169.365C370.586 171.181 372.498 174.334 373.501 176.437C374.504 178.539 375.699 181.549 376.129 183.126C376.559 184.702 377.037 188.477 377.18 191.487C377.371 195.644 377.276 197.937 376.607 201.043C376.177 203.289 375.269 206.395 374.648 207.971C373.979 209.548 372.593 212.271 369.679 217.288L370.586 220.251C371.064 221.923 371.876 225.076 372.354 227.322C373.023 230.476 373.262 233.486 373.262 240.7C373.262 248.775 373.119 250.686 372.115 255.034C371.494 257.806 370.347 261.867 369.583 264.113C368.771 266.358 367.624 269.13 365.952 272.474L368.58 277.013C370.061 279.498 372.593 284.371 374.218 287.764C375.89 291.156 377.992 296.125 378.9 298.753C379.856 301.381 381.098 305.156 381.671 307.115C382.197 309.073 383.2 313.278 383.821 316.432C384.443 319.585 385.207 325.271 386.067 336.021L389.412 337.933C391.227 338.984 393.951 341.134 395.432 342.711C396.961 344.287 398.824 346.628 399.589 347.966C400.305 349.256 401.452 351.741 402.073 353.461C402.886 355.659 403.316 358 403.459 361.584C403.698 365.406 403.554 367.508 402.886 370.423C402.408 372.621 401.07 376.109 399.828 378.545C398.155 381.842 396.818 383.706 394.046 386.429C391.562 388.961 389.316 390.634 386.64 392.019C384.538 393.118 381.528 394.313 379.951 394.743C378.374 395.173 375.173 395.507 372.784 395.507C370.395 395.507 367.194 395.173 362.75 394.169L360.123 396.558C358.689 397.896 355.106 400.572 352.239 402.483C349.372 404.394 344.737 407.022 341.966 408.36C339.195 409.65 334.369 411.561 331.216 412.613C328.062 413.664 322.998 415.097 319.987 415.766C316.977 416.435 311.053 417.438 306.848 417.964C302.643 418.489 295.668 419.111 291.32 419.397C286.972 419.636 276.986 419.875 269.102 419.875C261.218 419.875 251.519 419.636 247.601 419.397C243.683 419.111 237.185 418.489 233.267 417.916C229.349 417.343 223.615 416.292 220.605 415.479C217.595 414.715 212.722 413.09 204.599 409.746L200.777 410.749C198.674 411.275 195.139 412.135 192.893 412.66C190.647 413.186 185.583 414.141 181.665 414.81C177.747 415.479 171.488 416.339 167.809 416.769C164.129 417.152 156.294 417.725 150.369 417.916C144.062 418.203 135.509 418.203 129.585 417.916C124.042 417.677 117.305 417.247 114.534 417.008C111.763 416.722 106.507 416.053 102.828 415.527C99.1488 415.002 94.0842 414.141 91.5996 413.616C89.1151 413.09 84.2415 411.944 80.8491 411.036C77.4568 410.176 71.7232 408.408 68.1875 407.166C64.6518 405.923 59.9215 404.155 57.6759 403.152C55.4302 402.149 52.229 400.668 50.5089 399.807C48.7888 398.947 45.2531 396.941 42.6252 395.364C39.9973 393.787 35.3627 390.634 32.3525 388.388C29.3424 386.142 24.3733 381.794 21.3632 378.784C18.3053 375.774 14.1962 371.14 12.2372 368.512C10.2782 365.884 7.36367 361.584 5.83471 358.956C4.25797 356.328 1.86898 351.693 0.531143 348.683C-0.854473 345.673 -2.76567 340.799 -3.72127 337.933C-4.67686 335.066 -5.96692 330.527 -6.58806 327.899C-7.2092 325.271 -8.1648 320.111 -8.69038 316.432C-9.16817 312.753 -9.74153 307.067 -9.93265 303.77C-10.076 300.473 -9.98043 294.023 -9.74153 289.436C-9.45485 284.849 -8.83371 278.064 -8.30814 274.385C-7.78256 270.706 -6.7314 264.782 -5.91914 261.246C-5.15466 257.71 -3.72127 252.215 -2.76567 249.062C-1.81007 245.908 0.148904 240.318 1.63008 236.639C3.06348 232.96 5.64359 227.131 7.26811 223.739C8.9404 220.346 12.0461 214.613 14.1484 211.077C16.2985 207.541 19.3086 202.859 23.7522 196.743L22.0321 192.108C21.0765 189.528 19.7864 185.371 19.1653 182.887C18.4964 180.402 17.6363 175.768 17.2541 172.614C16.6807 168.41 16.5374 164.683 16.7285 158.519C16.8719 153.311 17.3497 148.103 17.9708 144.663C18.4964 141.653 19.6909 136.588 20.5987 133.435C21.4587 130.281 23.2266 125.121 24.4689 121.967C25.7111 118.814 28.3868 112.794 30.3936 108.589C32.4003 104.384 34.8849 99.5587 37.6561 94.7329L35.8883 90.6716C34.9327 88.426 33.5948 84.5558 32.9259 82.0712C31.8748 78.1055 31.7314 76.5288 31.7314 69.6485C31.6836 62.6726 31.827 61.2392 32.9259 57.2257C33.5948 54.7412 34.8849 51.0621 35.7927 49.1031C36.6527 47.1441 38.4684 43.9429 39.7584 41.9839C41.0963 40.0249 43.6764 36.8715 45.492 35.0081C47.3077 33.0969 50.0311 30.7079 51.4645 29.6567C52.8979 28.6056 55.478 26.981 57.1981 26.0254C58.9182 25.0698 61.8327 23.732 63.6484 23.0153Z" fill="#EA7F0F"/>
<path d="M63.6484 23.0153C65.464 22.3464 68.8086 21.3908 71.0543 20.913C73.5866 20.3396 77.2656 20.0052 80.8491 20.0052C84.2893 19.9574 88.2072 20.2441 90.644 20.7219C92.8897 21.1519 96.3298 22.0597 98.2888 22.7764C100.248 23.4453 103.497 24.9265 105.456 26.0732C107.415 27.1722 110.712 29.5134 116.445 34.2914L123.517 32.858C127.387 32.0935 133.55 31.0901 137.229 30.6601C141.53 30.1823 147.645 29.8956 154.43 29.8478C161.406 29.8478 167.187 30.1345 171.631 30.6601C175.31 31.1379 180.47 31.9024 183.098 32.4279C185.726 32.9535 190.217 34.0047 193.132 34.7692C195.999 35.5336 199.582 36.5848 203.643 38.066L205.077 36.5848C205.841 35.8203 208.326 33.9569 210.572 32.4279C212.817 30.9468 216.257 29.0356 218.216 28.2233C220.175 27.3633 223.711 26.2166 226.1 25.6432C229.445 24.7832 231.834 24.5443 236.85 24.5443C240.386 24.5443 244.591 24.7832 246.168 25.1176L246.381 25.1693C247.953 25.5502 250.19 26.0922 251.423 26.5032C252.761 26.8855 255.293 27.8889 257.157 28.6533C259.02 29.4656 262.317 31.2812 264.563 32.7624C266.808 34.2436 270.249 37.0626 272.208 39.0693C274.214 41.0283 276.938 44.3729 278.323 46.4752C279.709 48.5775 281.477 51.9221 282.289 53.8811C283.149 55.8401 284.344 59.5191 284.965 62.0037C285.968 65.7305 286.159 67.7373 286.207 73.232C286.207 76.911 286.016 81.2112 285.682 82.7879C285.395 84.3647 284.678 87.0404 284.105 88.7604C283.531 90.4805 282.241 93.5862 281.19 95.6885C280.139 97.7908 278.658 100.371 276.603 103.333L278.897 110.022C280.139 113.702 281.716 119.196 282.432 122.206C283.101 125.216 284.009 130.042 284.439 132.957C284.869 135.871 285.347 141.318 285.825 152.069L288.931 152.451C290.651 152.642 294.425 153.263 297.292 153.789C300.159 154.314 304.937 155.509 307.804 156.465C310.67 157.372 313.872 158.567 316.643 159.952L318.697 158.806C319.796 158.137 322.759 156.942 325.243 156.082C329.066 154.792 330.69 154.506 335.516 154.362C340.103 154.171 342.205 154.314 346.027 155.127C349.372 155.843 352.239 156.847 355.583 158.471C358.211 159.761 361.795 162.055 363.611 163.488C365.378 164.969 367.911 167.597 369.249 169.365C370.586 171.181 372.498 174.334 373.501 176.437C374.504 178.539 375.699 181.549 376.129 183.126C376.559 184.702 377.037 188.477 377.18 191.487C377.371 195.644 377.276 197.937 376.607 201.043C376.177 203.289 375.269 206.395 374.648 207.971C373.979 209.548 372.593 212.271 369.679 217.288L370.586 220.251C371.064 221.923 371.876 225.076 372.354 227.322C373.023 230.476 373.262 233.486 373.262 240.7C373.262 248.775 373.119 250.686 372.115 255.034C371.494 257.806 370.347 261.867 369.583 264.113C368.771 266.358 367.624 269.13 365.952 272.474L368.58 277.013C370.061 279.498 372.593 284.371 374.218 287.764C375.89 291.156 377.992 296.125 378.9 298.753C379.856 301.381 381.098 305.156 381.671 307.115C382.197 309.073 383.2 313.278 383.821 316.432C384.443 319.585 385.207 325.271 386.067 336.021L389.412 337.933C391.227 338.984 393.951 341.134 395.432 342.711C396.961 344.287 398.824 346.628 399.589 347.966C400.305 349.256 401.452 351.741 402.073 353.461C402.886 355.659 403.316 358 403.459 361.584C403.698 365.406 403.554 367.508 402.886 370.423C402.408 372.621 401.07 376.109 399.828 378.545C398.155 381.842 396.818 383.706 394.046 386.429C391.562 388.961 389.316 390.634 386.64 392.019C384.538 393.118 381.528 394.313 379.951 394.743C378.374 395.173 375.173 395.507 372.784 395.507C370.395 395.507 367.194 395.173 362.75 394.169L360.123 396.558C358.689 397.896 355.106 400.572 352.239 402.483C349.372 404.394 344.737 407.022 341.966 408.36C339.195 409.65 334.369 411.561 331.216 412.613C328.062 413.664 322.998 415.097 319.987 415.766C316.977 416.435 311.053 417.438 306.848 417.964C302.643 418.489 295.668 419.111 291.32 419.397C286.972 419.636 276.986 419.875 269.102 419.875C261.218 419.875 251.519 419.636 247.601 419.397C243.683 419.111 237.185 418.489 233.267 417.916C229.349 417.343 223.615 416.292 220.605 415.479C217.595 414.715 212.722 413.09 204.599 409.746L200.777 410.749C198.674 411.275 195.139 412.135 192.893 412.66C190.647 413.186 185.583 414.141 181.665 414.81C177.747 415.479 171.488 416.339 167.809 416.769C164.129 417.152 156.294 417.725 150.369 417.916C144.062 418.203 135.509 418.203 129.585 417.916C124.042 417.677 117.305 417.247 114.534 417.008C111.763 416.722 106.507 416.053 102.828 415.527C99.1488 415.002 94.0842 414.141 91.5996 413.616C89.1151 413.09 84.2415 411.944 80.8491 411.036C77.4568 410.176 71.7232 408.408 68.1875 407.166C64.6518 405.923 59.9215 404.155 57.6759 403.152C55.4302 402.149 52.229 400.668 50.5089 399.807C48.7888 398.947 45.2531 396.941 42.6252 395.364C39.9973 393.787 35.3627 390.634 32.3525 388.388C29.3424 386.142 24.3733 381.794 21.3632 378.784C18.3053 375.774 14.1962 371.14 12.2372 368.512C10.2782 365.884 7.36367 361.584 5.83471 358.956C4.25797 356.328 1.86898 351.693 0.531143 348.683C-0.854473 345.673 -2.76567 340.799 -3.72127 337.933C-4.67686 335.066 -5.96692 330.527 -6.58806 327.899C-7.2092 325.271 -8.1648 320.111 -8.69038 316.432C-9.16817 312.753 -9.74153 307.067 -9.93265 303.77C-10.076 300.473 -9.98043 294.023 -9.74153 289.436C-9.45485 284.849 -8.83371 278.064 -8.30814 274.385C-7.78256 270.706 -6.7314 264.782 -5.91914 261.246C-5.15466 257.71 -3.72127 252.215 -2.76567 249.062C-1.81007 245.908 0.148904 240.318 1.63008 236.639C3.06348 232.96 5.64359 227.131 7.26811 223.739C8.9404 220.346 12.0461 214.613 14.1484 211.077C16.2985 207.541 19.3086 202.859 23.7522 196.743L22.0321 192.108C21.0765 189.528 19.7864 185.371 19.1653 182.887C18.4964 180.402 17.6363 175.768 17.2541 172.614C16.6807 168.41 16.5374 164.683 16.7285 158.519C16.8719 153.311 17.3497 148.103 17.9708 144.663C18.4964 141.653 19.6909 136.588 20.5987 133.435C21.4587 130.281 23.2266 125.121 24.4689 121.967C25.7111 118.814 28.3868 112.794 30.3936 108.589C32.4003 104.384 34.8849 99.5587 37.6561 94.7329L35.8883 90.6716C34.9327 88.426 33.5948 84.5558 32.9259 82.0712C31.8748 78.1055 31.7314 76.5288 31.7314 69.6485C31.6836 62.6726 31.827 61.2392 32.9259 57.2257C33.5948 54.7412 34.8849 51.0621 35.7927 49.1031C36.6527 47.1441 38.4684 43.9429 39.7584 41.9839C41.0963 40.0249 43.6764 36.8715 45.492 35.0081C47.3077 33.0969 50.0311 30.7079 51.4645 29.6567C52.8979 28.6056 55.478 26.981 57.1981 26.0254C58.9182 25.0698 61.8327 23.732 63.6484 23.0153Z" stroke="#F39C17" stroke-width="40" mask="url(#path-1-outside-1_480_7920)"/>
<path d="M381.528 364.212C382.34 361.823 383.344 358.191 383.774 356.041L384.586 352.219L385.924 353.652C386.688 354.464 387.739 356.089 388.265 357.283C388.79 358.478 389.364 360.389 389.555 361.584C389.746 362.921 389.603 365.072 389.077 367.317C388.599 369.706 387.739 371.856 386.497 373.767C385.35 375.631 383.821 377.16 382.292 378.163C381.002 379.023 378.709 379.979 377.228 380.313C375.699 380.648 374.361 380.791 374.218 380.6C374.074 380.361 374.409 379.644 374.887 378.928C375.412 378.163 376.798 375.535 377.944 373.051C379.139 370.566 380.716 366.6 381.528 364.212Z" fill="#F59A13"/>
<path d="M388.552 359.433C388.169 358.143 387.262 356.184 386.545 355.133C385.494 353.509 385.446 353.365 386.354 354.178C386.927 354.703 387.787 356.137 388.313 357.379C388.838 358.669 389.412 360.58 389.555 361.679C389.746 362.921 389.555 365.167 389.077 367.317C388.599 369.706 387.739 371.856 386.497 373.767C385.35 375.583 383.821 377.208 382.292 378.163C381.002 379.023 379.617 379.74 379.235 379.74C378.852 379.74 379.473 379.167 380.668 378.498C381.862 377.829 383.439 376.73 384.156 376.013C384.92 375.296 386.067 373.672 386.736 372.334C387.357 371.044 387.787 369.658 387.644 369.372C387.5 369.037 387.596 368.846 387.835 368.989C388.074 369.133 388.552 368.177 388.791 366.839C389.029 365.549 389.268 363.877 389.268 363.16C389.268 362.396 388.934 360.771 388.552 359.433Z" fill="#F59A13"/>
<path d="M240.434 158.997C241.198 158.662 242.823 158.137 244.017 157.755C245.355 157.372 247.888 157.181 250.707 157.277C254.003 157.372 256.058 157.707 258.113 158.519C260.454 159.379 261.696 160.335 264.802 163.536C266.904 165.734 269.15 167.597 269.819 167.741C270.488 167.932 275.218 168.123 280.33 168.266C287.402 168.41 290.794 168.744 294.425 169.508C297.053 170.082 300.828 171.037 302.787 171.706C304.746 172.375 308.281 173.856 310.67 175.051C314.445 176.962 315.257 177.249 317.36 177.058C319.032 176.914 320.418 176.437 321.899 175.385C323.093 174.621 324.909 173.522 325.96 172.949C327.011 172.423 329.161 171.659 330.738 171.229C332.315 170.799 335.325 170.464 337.427 170.464C339.577 170.464 342.396 170.799 343.877 171.229C345.311 171.659 347.509 172.519 348.799 173.14C350.041 173.761 351.809 174.955 352.717 175.72C353.625 176.484 354.293 177.392 354.15 177.631C354.007 177.918 354.15 178.061 354.437 178.013C354.771 177.918 355.822 178.969 356.826 180.259C357.829 181.597 359.119 183.842 359.645 185.276C360.218 186.709 360.839 189.289 361.078 191.009C361.317 192.777 361.365 195.31 361.126 196.982C360.887 198.559 360.266 201.043 359.693 202.477C359.119 203.91 358.164 205.917 357.495 206.92C356.73 208.067 356.109 208.545 355.727 208.353C355.313 208.099 355.233 208.178 355.488 208.592C355.679 208.927 355.44 209.644 354.915 210.265C354.437 210.838 353.768 211.794 353.481 212.415C353.195 212.988 352.956 214.326 352.956 215.377C352.956 216.428 353.72 219.486 354.628 222.21C355.536 224.885 356.635 228.756 357.017 230.81C357.399 232.865 357.734 237.117 357.734 240.366C357.734 244.284 357.447 247.676 356.826 250.734C356.3 253.219 355.297 256.898 354.58 258.857C353.863 260.816 352.239 264.59 350.949 267.218C348.847 271.471 348.608 272.235 348.847 274.146C349.038 275.58 349.945 277.539 351.522 280.023C352.86 282.03 353.816 283.941 353.672 284.18C353.529 284.419 353.672 284.61 353.959 284.562C354.293 284.467 355.87 286.999 357.543 290.153C359.215 293.306 361.508 298.275 362.703 301.142C363.849 304.009 365.331 308.309 366 310.698C366.716 313.087 367.672 317.148 368.197 319.776C368.723 322.404 369.392 327.039 369.726 330.049C370.013 333.155 370.156 338.028 369.965 341.277C369.822 344.431 369.344 348.826 368.914 351.072C368.484 353.318 367.624 356.853 366.955 358.956C366.286 361.058 365.092 364.116 364.375 365.788C363.611 367.413 362.751 368.703 362.464 368.655C362.177 368.559 361.795 368.846 361.699 369.228C361.508 369.85 361.556 369.85 361.986 369.228C362.273 368.846 362.512 368.751 362.512 368.989C362.512 369.228 361.938 370.375 361.317 371.522C360.648 372.621 359.979 373.433 359.788 373.337C359.549 373.242 359.406 373.529 359.406 373.911C359.406 374.341 359.167 374.723 358.833 374.723C358.546 374.723 358.116 374.914 357.877 375.153C357.686 375.392 357.734 375.44 358.116 375.296C358.403 375.105 358.689 375.105 358.689 375.344C358.737 375.535 358.45 375.965 358.116 376.252C357.781 376.586 357.351 376.778 357.16 376.634C356.921 376.491 356.635 376.682 356.444 376.969C356.189 377.383 356.268 377.462 356.682 377.208C356.969 377.016 357.256 377.016 357.256 377.255C357.304 377.447 356.921 377.972 356.444 378.45C355.966 378.88 355.392 379.119 355.154 378.928C354.915 378.689 354.867 378.832 355.01 379.167C355.201 379.501 354.485 380.6 353.195 381.89C352 383.085 350.806 383.945 350.567 383.801C350.328 383.658 349.802 383.897 349.515 384.279C349.181 384.709 349.133 385.044 349.372 384.996C349.611 384.996 349.42 385.426 348.894 385.951C348.369 386.477 347.795 386.955 347.604 386.907C347.365 386.907 347.365 386.62 347.557 386.334C347.811 385.919 347.732 385.84 347.318 386.095C347.031 386.286 346.84 386.668 346.983 386.907C347.126 387.146 346.075 388.149 344.738 389.105C342.97 390.299 341.966 390.729 341.488 390.443C340.963 390.156 340.867 390.204 341.154 390.634C341.393 391.016 340.246 391.828 337.571 393.166C335.373 394.217 333.318 394.982 333.031 394.838C332.697 394.695 332.506 394.791 332.649 395.03C332.793 395.268 332.458 395.603 331.932 395.746C331.407 395.89 330.69 395.842 330.404 395.651C329.989 395.396 329.91 395.475 330.165 395.89C330.404 396.272 329.257 396.845 326.103 397.896C323.667 398.661 319.175 399.855 316.165 400.572C313.155 401.241 307.565 402.244 303.742 402.77C298.104 403.534 293.087 403.773 276.747 403.964C264.85 404.108 252.379 404.012 246.168 403.678C240.338 403.391 233.124 402.722 229.922 402.196C226.769 401.671 222.373 400.572 220.128 399.808C217.882 398.995 214.872 397.657 213.438 396.845C212.005 395.985 209.377 393.883 207.657 392.163C205.937 390.443 203.93 388.006 203.309 386.668C202.64 385.378 201.732 383.085 201.302 381.651C200.872 380.218 200.538 377.399 200.538 375.44C200.538 373.481 200.872 370.805 201.207 369.467C201.589 368.177 202.162 366.362 202.545 365.502C203.07 364.164 203.357 363.973 204.36 364.211C205.029 364.403 208.135 365.024 211.288 365.645C214.442 366.266 219.602 367.031 222.755 367.269C225.909 367.556 230.4 367.795 232.789 367.795C235.178 367.795 239.478 367.556 242.345 367.269C245.212 366.983 249.751 366.362 252.379 365.836C255.007 365.31 259.642 364.116 262.652 363.208C265.662 362.253 270.296 360.485 272.924 359.242C275.552 358 279.327 355.946 281.286 354.703C283.245 353.413 286.159 351.359 287.736 350.116C289.313 348.874 290.985 347.106 291.463 346.151C291.893 345.147 292.275 343.762 292.275 342.949C292.275 342.185 291.988 340.943 291.606 340.226C291.224 339.462 290.555 338.506 290.077 338.028C289.552 337.598 288.309 337.025 287.258 336.738C286.207 336.499 284.678 336.451 283.914 336.642C283.149 336.881 281.142 338.028 279.518 339.27C277.846 340.513 276.412 341.516 276.269 341.516C276.126 341.516 276.173 341.229 276.364 340.943C276.619 340.529 276.54 340.449 276.126 340.704C275.839 340.895 275.696 341.325 275.934 341.612C276.173 342.042 276.03 342.089 275.457 341.85C274.931 341.659 274.692 341.707 274.836 341.994C274.979 342.233 274.644 342.711 274.119 342.949C273.593 343.188 272.877 343.284 272.59 343.093C272.176 342.838 272.096 342.918 272.351 343.332C272.574 343.714 272.016 344.24 270.679 344.908C269.532 345.434 268.337 345.768 268.051 345.625C267.716 345.482 267.525 345.577 267.669 345.816C267.812 346.055 267.525 346.437 267.095 346.581C266.617 346.724 264.419 347.489 262.174 348.301C259.928 349.065 256.392 350.116 254.29 350.594C252.188 351.12 248.222 351.837 245.451 352.219C242.345 352.697 237.137 352.983 231.834 352.983C227.103 352.983 220.988 352.649 218.216 352.267C215.445 351.932 211.575 351.263 209.616 350.833C207.657 350.403 204.217 349.543 201.971 348.922C199.726 348.253 196.333 346.963 194.47 346.055C192.559 345.147 191.03 344.287 191.125 344.144C191.173 344.048 193.18 343.714 195.521 343.427C199.152 342.997 200.012 342.711 201.159 341.612C201.876 340.895 202.688 339.605 202.927 338.793C203.309 337.598 203.213 336.786 202.688 335.544C202.306 334.636 201.254 333.441 200.442 332.868C199.057 332.008 198.388 331.912 194.326 332.151C191.842 332.295 188.019 332.581 182.047 333.155L181.474 329.81C181.187 327.994 180.996 326.418 181.044 326.37C181.139 326.322 184.293 325.94 188.115 325.51C191.937 325.08 195.999 324.459 197.145 324.172C198.34 323.837 199.726 323.025 200.394 322.309C201.063 321.448 201.493 320.35 201.493 319.298C201.493 318.391 201.207 317.053 200.824 316.336C200.442 315.524 199.296 314.616 198.101 314.043C196.142 313.183 195.664 313.135 190.265 313.708C187.112 313.995 184.484 314.234 184.388 314.138C184.34 314.09 185.63 312.753 187.255 311.176C189.31 309.169 191.173 307.927 193.132 307.115C195.282 306.302 196.907 306.016 199.582 306.016C201.541 306.016 206.94 306.541 211.527 307.115C217.786 307.927 222.134 308.213 228.967 308.213C235.943 308.166 239.335 307.927 243.54 307.21C246.55 306.637 251.614 305.442 254.768 304.487C257.921 303.531 262.222 301.954 264.324 300.951C266.426 299.995 268.959 298.562 269.962 297.797C270.965 296.985 272.064 295.552 272.447 294.596C272.972 293.258 273.068 292.303 272.685 291.013C272.447 290.009 271.73 288.671 271.156 288.05C270.535 287.381 269.341 286.569 268.529 286.235C267.669 285.9 266.426 285.614 265.757 285.614C265.088 285.614 263.894 285.948 263.129 286.33C262.365 286.713 261.218 286.904 260.645 286.76C259.833 286.569 259.737 286.617 260.263 286.951C260.884 287.334 260.836 287.477 260.024 287.764L260.022 287.764C259.495 287.956 257.918 288.529 254.051 289.914L253 287.238C252.283 285.47 251.423 284.276 250.563 283.75C249.847 283.32 248.461 281.6 247.458 279.928C246.502 278.255 244.304 275.389 242.584 273.525C240.864 271.71 238.188 269.273 236.612 268.174C235.035 267.027 232.359 265.45 230.639 264.59C228.919 263.73 226.148 262.488 224.428 261.867C222.708 261.198 218.837 260.051 215.827 259.287C212.101 258.331 209.903 257.471 209.043 256.707C208.278 256.038 207.37 255.512 206.988 255.512C206.606 255.512 206.271 255.273 206.271 255.034C206.271 254.796 205.698 253.744 205.029 252.789C203.978 251.308 203.835 251.164 204.073 252.168C204.217 252.837 204.36 253.649 204.36 253.983C204.36 254.27 204.695 254.652 205.077 254.796C205.555 254.955 205.523 254.987 204.981 254.891C204.312 254.843 203.835 253.697 203.022 250.495C202.21 247.533 201.78 244.236 201.637 239.984C201.446 236.257 201.589 232.148 201.923 229.711C202.258 227.465 203.309 223.165 204.312 220.155C205.316 217.145 206.94 213.084 207.896 211.22C209.09 208.831 209.807 207.828 210.237 208.067C210.619 208.322 210.699 208.242 210.476 207.828C210.237 207.541 210.333 206.825 210.572 206.299C210.81 205.773 211.288 205.439 211.527 205.582C211.766 205.726 212.148 205.534 212.387 205.248C212.61 204.834 212.531 204.754 212.148 205.009C211.814 205.2 211.527 205.2 211.527 205.009C211.527 204.77 212.053 203.814 212.722 202.859C213.391 201.855 214.155 201.139 214.394 201.282C214.633 201.425 215.015 201.234 215.206 200.948C215.461 200.534 215.381 200.454 214.967 200.709C214.681 200.9 214.394 200.948 214.394 200.804C214.394 200.661 214.92 199.801 215.588 198.893C216.257 197.985 217.07 197.269 217.404 197.364C217.691 197.412 217.93 197.125 217.834 196.743C217.786 196.361 219.315 194.45 221.322 192.586C223.281 190.675 225.24 188.382 225.67 187.569C226.243 186.47 226.434 184.846 226.387 182.313C226.387 180.259 226.673 177.153 227.103 175.385C227.486 173.57 228.441 170.942 229.206 169.508C230.018 168.075 231.642 165.829 232.885 164.539C234.175 163.297 236.038 161.625 237.089 160.908C238.141 160.144 239.67 159.284 240.434 158.997Z" fill="#FFE8BF"/>
<path d="M248.7 222.735C250.038 222.114 252.331 221.397 253.717 221.158C255.055 220.92 257.826 220.824 259.785 220.967C261.744 221.111 264.515 221.541 265.901 221.875C267.238 222.257 269.532 223.117 270.917 223.834C272.255 224.503 274.501 226.175 275.839 227.513C277.75 229.424 278.467 230.571 279.136 232.817C279.661 234.68 279.852 236.257 279.613 237.356C279.422 238.264 278.897 239.793 278.419 240.7C277.989 241.608 276.747 243.089 275.743 243.997C274.692 244.905 272.685 246.195 271.252 246.816C269.532 247.581 267.334 248.106 261.17 248.584L260.74 250.256C260.501 251.164 259.976 253.219 258.829 257.662L262.556 257.376C265.136 257.185 267.095 256.707 269.102 255.799C270.679 255.082 272.876 253.649 274.023 252.598C275.409 251.308 276.46 250.734 277.463 250.734C278.276 250.734 279.327 250.973 279.852 251.212C280.378 251.451 281.047 252.359 281.286 253.123C281.62 254.174 281.572 254.987 281.142 256.086C280.76 256.946 279.566 258.475 278.371 259.526C277.224 260.529 274.979 261.963 273.402 262.727C271.825 263.491 268.911 264.447 266.952 264.877C264.419 265.45 262.269 265.594 259.546 265.403C257.444 265.259 254.242 264.638 252.379 264.065C250.563 263.491 247.649 262.393 245.929 261.532C244.209 260.72 241.724 258.905 240.195 257.423C238.714 255.99 236.946 253.601 236.229 252.168C235.513 250.734 234.939 248.775 234.939 247.867C234.939 246.816 235.321 245.813 236.038 245.096C236.707 244.38 237.663 243.997 238.762 243.997C239.765 243.997 240.768 244.38 241.198 244.857C241.628 245.335 242.393 246.673 242.918 247.867C243.444 249.062 244.782 250.83 245.833 251.785C246.932 252.789 248.7 254.031 249.751 254.557C250.802 255.082 251.758 255.464 251.853 255.369C251.901 255.321 252.427 253.41 252.904 251.116C253.382 248.823 253.717 246.864 253.573 246.816C253.43 246.721 252.092 246.052 250.611 245.335C249.082 244.618 246.932 243.233 245.833 242.229C244.782 241.274 243.348 239.363 242.775 238.073C242.058 236.544 241.628 234.824 241.628 233.295C241.628 231.957 242.058 230.046 242.536 228.994C243.014 227.943 244.017 226.366 244.782 225.506C245.546 224.599 247.314 223.356 248.7 222.735Z" fill="#2A271E"/>
<path d="M285.586 212.51C286.255 212.128 287.832 211.603 289.169 211.268C290.46 210.886 292.61 210.743 293.947 210.886C295.238 210.981 297.388 211.459 298.725 211.937C300.159 212.415 302.07 213.609 303.503 214.947C304.794 216.142 306.418 218.196 307.087 219.486C307.708 220.776 308.329 223.022 308.473 224.455C308.664 226.797 308.52 227.227 307.421 228.421C306.593 229.281 305.685 229.711 304.698 229.711C303.933 229.711 302.93 229.568 302.5 229.377C302.07 229.138 301.401 228.421 301.067 227.704C300.684 226.94 300.398 225.889 300.398 225.315C300.398 224.694 299.968 223.5 299.442 222.687C298.917 221.827 297.77 220.681 296.958 220.155C295.859 219.534 294.521 219.2 292.753 219.2C291.033 219.2 289.743 219.486 288.931 220.012C288.262 220.49 286.972 221.684 286.064 222.687C284.774 224.073 284.057 224.503 282.863 224.455C281.859 224.455 280.856 224.025 280.091 223.261C279.375 222.544 278.897 221.541 278.897 220.776C278.897 220.012 279.422 218.578 280.044 217.527C280.665 216.476 281.907 215.043 282.767 214.374C283.675 213.705 284.917 212.845 285.586 212.51Z" fill="#2A271E"/>
<path d="M227.868 204.053C228.967 203.289 230.974 202.333 232.311 201.855C234.031 201.234 235.704 201.043 238.284 201.187C240.912 201.33 242.489 201.664 244.256 202.572C245.594 203.241 247.458 204.674 248.413 205.773C249.417 206.825 250.563 208.401 250.946 209.166C251.328 209.978 251.806 211.507 251.949 212.654C252.14 213.753 252.14 215.234 251.949 215.998C251.758 216.763 251.089 217.575 250.229 218.005C249.464 218.387 248.318 218.626 247.744 218.483C247.123 218.34 246.168 217.766 245.594 217.145C245.069 216.572 244.352 215.234 244.065 214.183C243.826 213.132 243.11 211.794 242.489 211.268C241.867 210.695 240.912 209.978 240.338 209.691C239.717 209.405 238.332 209.166 237.233 209.166C236.038 209.166 234.557 209.548 233.649 210.121C232.789 210.647 231.595 211.746 231.021 212.558C230.4 213.37 229.349 214.326 228.632 214.708C227.868 215.09 226.626 215.282 225.861 215.138C225.097 214.995 224.093 214.422 223.711 213.848C223.329 213.227 222.994 211.985 222.994 211.077C222.947 209.978 223.472 208.736 224.428 207.398C225.192 206.251 226.769 204.77 227.868 204.053Z" fill="#2A271E"/>
<path d="M68.9042 39.0216C70.4809 38.4482 73.2521 37.7315 75.1156 37.3493C77.1223 36.967 80.1802 36.7759 82.7603 36.9193C85.1016 37.0148 88.4461 37.5404 90.1662 38.066C91.8863 38.5438 94.132 39.356 95.1831 39.7861C96.2343 40.2639 98.2888 41.3628 99.7222 42.3184C101.156 43.2262 104.357 45.9019 111.189 52.4477L113.722 52.3044C115.06 52.2088 118.022 51.5877 120.268 50.9188C122.513 50.2499 126.909 49.2465 130.062 48.7209C133.216 48.1475 138.711 47.4786 142.246 47.1442C146.26 46.8097 152.471 46.6664 158.73 46.8575C165.037 47.0486 171.153 47.4786 175.214 48.0998C178.75 48.6731 184.245 49.7243 187.398 50.4888C190.552 51.2532 195.951 52.8777 199.343 54.0722C202.736 55.3145 206.128 56.2701 206.893 56.2701C207.609 56.2701 208.66 56.0312 209.281 55.7445C209.855 55.4101 212.244 53.3078 214.633 51.0621C217.404 48.4342 220.128 46.2841 222.278 45.1852C224.141 44.2296 227.342 42.9873 229.445 42.414C231.881 41.7928 234.748 41.4584 237.328 41.4584C239.574 41.4584 242.727 41.7928 244.4 42.1751C246.024 42.5573 248.795 43.5607 250.611 44.3729C252.379 45.1852 255.15 46.7619 256.822 47.9564C258.447 49.1031 260.884 51.3966 262.269 53.0211C263.607 54.6934 265.566 57.7513 266.57 59.8536C267.573 61.9559 268.72 65.1572 269.102 67.0206C269.484 68.8362 269.819 71.6552 269.819 73.232C269.819 74.8087 269.58 77.4844 269.293 79.2045C269.054 80.9245 268.099 84.0302 267.286 86.1325C266.426 88.2349 264.372 92.105 262.652 94.7329C260.31 98.412 259.546 100.036 259.403 101.661C259.259 103.047 259.546 104.767 260.167 106.439C260.693 107.872 262.031 111.551 263.129 114.562C264.228 117.572 265.757 122.636 266.522 125.79C267.286 128.943 268.242 134.199 268.624 137.496C269.006 140.793 269.341 143.994 269.293 145.857L265.375 144.328C263.225 143.468 259.833 142.417 257.874 141.987C255.198 141.414 252.713 141.271 248.079 141.462C243.444 141.605 241.007 141.939 238.523 142.752C236.659 143.325 233.793 144.52 232.072 145.38C230.352 146.24 227.629 147.96 226.052 149.25C224.428 150.54 222.182 152.642 220.988 153.98C219.841 155.27 218.216 157.325 217.404 158.519C216.592 159.714 215.302 162.007 214.442 163.632C213.629 165.304 212.531 168.218 212.005 170.082C211.479 171.993 210.906 175.194 210.38 180.737L206.797 184.941C204.79 187.235 201.828 191.009 200.203 193.303C198.579 195.596 195.855 200.135 194.135 203.432C192.463 206.729 190.504 211.029 189.787 212.988C189.071 214.947 187.972 218.817 187.303 221.589C186.395 225.411 186.06 228.373 185.869 234.25C185.726 239.745 185.822 243.233 186.347 246.673C186.777 249.301 187.064 251.499 187.016 251.594C186.968 251.69 185.105 251.355 182.859 250.925C180.614 250.495 175.788 249.301 172.109 248.297C168.43 247.294 162.744 245.478 159.447 244.284C156.15 243.042 149.939 240.318 145.591 238.168C141.243 236.018 136.847 233.629 135.796 232.817C134.745 232.005 133.407 231.049 132.834 230.762C132.213 230.428 130.922 230.189 129.967 230.189C128.963 230.189 127.482 230.571 126.718 231.049C125.953 231.527 124.902 232.721 124.472 233.677C123.994 234.632 123.612 235.875 123.612 236.4C123.612 236.926 123.899 238.073 124.233 238.885C124.616 239.745 125.714 241.131 126.766 241.943C127.769 242.755 130.779 244.714 133.407 246.291C136.035 247.867 140.144 250.161 142.485 251.355C144.826 252.502 149.127 254.509 152.041 255.751C154.956 256.993 160.212 258.952 163.747 260.147C167.283 261.341 173.638 263.109 177.842 264.16C182.047 265.164 189.883 266.741 195.282 267.696C200.681 268.652 207.561 269.942 210.572 270.611C213.582 271.327 217.786 272.474 219.889 273.239C221.991 274.003 225.288 275.58 227.247 276.679C229.301 277.873 231.977 279.928 233.697 281.791C235.417 283.607 237.281 286.187 238.141 288.003C238.953 289.723 239.765 291.586 239.908 292.159C240.195 293.211 240.004 293.258 236.994 293.593C235.178 293.832 230.544 293.975 226.578 293.927C222.23 293.927 215.923 293.449 210.572 292.828C204.79 292.112 200.347 291.777 197.671 291.968C195.043 292.112 192.224 292.637 189.787 293.449C187.685 294.166 184.484 295.695 182.62 296.842C180.757 297.941 177.89 300.378 176.17 302.145C174.45 303.961 172.204 306.923 171.153 308.787C170.15 310.65 168.764 313.756 168.095 315.715C167.092 318.725 166.949 320.254 166.901 325.271C166.901 328.615 167.14 332.056 167.474 333.011C168 334.684 168 334.827 167.092 334.827C166.566 334.827 163.843 334.397 161.024 333.871C158.157 333.298 153.045 332.151 149.652 331.243C146.26 330.336 141.195 328.854 138.424 327.899C135.653 326.943 130.397 324.889 126.718 323.312C123.039 321.783 117.21 318.964 113.817 317.101C110.425 315.237 105.79 312.514 103.545 311.08C101.299 309.647 96.7599 306.398 93.3675 303.866C90.0229 301.285 87.2994 299.088 87.2994 298.849C87.2994 298.658 86.4872 297.941 85.5316 297.272C84.1937 296.412 83.0948 296.077 81.5658 296.077C80.0369 296.125 78.9857 296.46 77.8868 297.32C77.0268 297.989 76.0712 299.231 75.7845 300.043C75.45 301.094 75.45 302.241 75.7845 303.531C76.1189 304.917 76.979 306.159 79.0335 308.07C80.5625 309.504 84.1937 312.609 87.0605 314.903C89.9751 317.244 94.992 320.923 98.2888 323.073C101.586 325.271 106.841 328.472 109.995 330.192C113.148 331.912 118.213 334.445 121.223 335.782C124.233 337.12 129.298 339.175 132.451 340.322C135.605 341.468 140.861 343.188 144.157 344.144C147.454 345.1 153.236 346.485 157.058 347.25C160.88 348.014 166.996 349.017 177.365 350.26L180.231 352.601C181.808 353.891 184.484 355.754 186.204 356.662C187.924 357.618 189.357 358.43 189.453 358.43C189.548 358.478 189.071 359.959 188.449 361.823C187.781 363.686 186.873 367.078 186.443 369.467C185.822 372.573 185.678 375.105 185.869 378.545C186.013 381.842 186.49 384.518 187.351 387.146C188.019 389.248 189.214 392.163 190.026 393.596C190.791 395.03 191.412 396.272 191.316 396.367C191.268 396.415 187.589 397.084 183.098 397.849C178.607 398.661 171.965 399.616 168.286 399.999C164.607 400.429 158.491 400.954 154.669 401.241C150.847 401.48 143.393 401.719 138.042 401.719C132.738 401.719 124.377 401.384 119.455 401.002C114.486 400.572 108.418 399.951 105.934 399.569C103.449 399.186 99.0533 398.422 96.1387 397.896C93.2241 397.323 88.7328 396.32 86.1049 395.698C83.477 395.03 78.9857 393.739 76.0712 392.784C73.1566 391.876 69.1909 390.443 67.2319 389.678C65.2729 388.914 61.0683 386.955 57.9148 385.378C54.7613 383.849 50.0311 381.126 47.4032 379.405C44.7753 377.685 41.1441 375.058 39.2806 373.576C37.465 372.095 34.4549 369.419 32.5915 367.556C30.728 365.693 28.0524 362.826 26.6667 361.106C25.2334 359.386 23.0833 356.519 21.841 354.656C20.5987 352.792 18.4964 349.256 17.1586 346.772C15.8685 344.287 14.0051 340.322 13.0495 337.933C12.1417 335.544 10.6127 330.813 9.65711 327.421C8.74929 324.029 7.50701 318.199 6.93365 314.52C6.1214 309.121 5.8825 305.681 5.8825 296.603C5.8825 287.286 6.07362 284.132 6.98143 277.969C7.60257 273.908 8.84485 267.553 9.75267 263.874C10.6605 260.195 12.3328 254.318 13.5273 250.83C14.674 247.39 17.0152 241.226 18.7353 237.213C20.4554 233.247 23.0833 227.8 24.5644 225.172C25.9978 222.544 28.6257 218.244 30.298 215.616C32.0181 212.988 35.0282 208.784 36.9394 206.299C38.8506 203.814 40.6185 201.187 40.9052 200.422C41.1918 199.705 41.4307 198.463 41.4307 197.699C41.4307 196.934 40.6663 194.497 39.7107 192.299C38.7551 190.149 37.3694 186.566 36.605 184.32C35.8405 182.075 34.7416 178.013 34.216 175.242C33.6426 172.375 33.117 167.358 32.9737 163.536C32.7826 158.901 32.9737 155.079 33.4993 151.113C33.8815 147.96 34.7416 143.325 35.4105 140.841C36.0794 138.356 37.4172 133.96 38.4684 131.046C39.5195 128.131 41.5741 123.114 43.0553 119.817C44.5364 116.521 47.1643 111.265 48.8844 108.111C50.6523 104.958 52.8979 100.801 53.9013 98.8898C54.9524 96.9786 55.7647 94.7807 55.7647 93.8729C55.7647 93.0606 55.2391 91.3883 54.5702 90.1938C53.9491 88.9993 52.659 86.6103 51.7034 84.7947C50.7956 83.0269 49.5533 79.9212 48.98 77.8666C48.2633 75.191 47.9766 72.8975 47.9766 69.4096C47.9766 66.3995 48.2633 63.4849 48.7888 61.5259C49.2666 59.8058 50.27 57.1302 51.0345 55.5534C51.799 53.9767 53.4713 51.301 54.7613 49.5809C56.0036 47.8609 58.2015 45.5196 59.6349 44.3729C61.0683 43.274 63.075 41.7928 64.1262 41.1717C65.1773 40.5505 67.3274 39.5949 68.9042 39.0216Z" fill="#FFE8BF"/>
<path d="M149.509 138.69C151.42 137.783 154.478 136.731 156.341 136.349C158.635 135.824 161.454 135.632 165.42 135.776C169.911 135.919 171.965 136.206 174.975 137.161C177.078 137.878 180.088 139.264 181.665 140.267C183.241 141.271 185.392 143.038 186.395 144.233C187.446 145.38 188.688 147.195 189.166 148.246C189.644 149.393 190.026 151.352 190.026 153.024C190.026 154.601 189.739 156.847 189.357 158.041C188.927 159.236 187.685 161.243 186.538 162.58C185.392 163.87 183.289 165.734 181.856 166.642C180.422 167.549 177.699 168.792 175.788 169.365C173.924 169.986 171.583 170.464 170.675 170.464C169.767 170.464 168.907 170.751 168.812 171.037C168.669 171.372 168.477 173.952 168.334 176.771C168.047 181.883 168.047 181.931 169.099 181.931C169.72 181.931 171.488 181.597 173.064 181.167C174.641 180.737 177.317 179.733 179.037 178.921C180.709 178.061 183.385 176.198 184.961 174.764C187.494 172.423 188.019 172.136 189.835 172.136C191.46 172.136 192.224 172.423 193.227 173.474C194.231 174.43 194.565 175.242 194.565 176.628C194.565 177.822 194.135 178.969 193.227 180.163C192.511 181.119 190.791 182.791 189.405 183.795C188.067 184.846 185.439 186.423 183.576 187.33C181.712 188.286 178.272 189.624 175.931 190.34C171.965 191.535 170.962 191.678 163.508 191.678C156.485 191.726 154.86 191.583 151.324 190.627C149.079 190.006 145.304 188.62 142.963 187.474C140.622 186.327 137.038 184.129 135.079 182.552C133.12 180.976 130.254 178.348 128.725 176.628C127.196 174.955 125.189 172.089 124.281 170.225C123.325 168.362 122.561 166.116 122.561 165.208C122.561 164.3 122.752 163.058 123.087 162.437C123.373 161.864 124.329 161.051 125.141 160.621C126.097 160.144 127.291 159.952 128.151 160.144C128.916 160.287 129.919 160.765 130.349 161.243C130.779 161.72 131.83 163.584 132.738 165.447C133.821 167.677 135.398 169.827 137.468 171.897C139.188 173.618 142.055 175.959 143.919 177.01C145.782 178.109 148.888 179.542 150.847 180.211C152.806 180.832 155.434 181.501 158.969 181.931V180.116C158.969 179.16 159.113 176.628 159.59 170.703L157.01 170.082C155.577 169.795 152.949 168.792 151.086 167.884C149.222 167.024 146.594 165.256 145.161 163.966C143.536 162.437 142.103 160.526 141.147 158.519C139.905 155.987 139.666 154.84 139.666 152.308C139.714 150.205 140.048 148.438 140.717 146.909C141.291 145.666 142.724 143.707 143.919 142.513C145.113 141.318 147.598 139.646 149.509 138.69Z" fill="#2A271E"/>
<path d="M205.077 114.084C206.367 113.51 208.756 112.746 210.333 112.411C211.909 112.077 214.585 111.743 216.305 111.743C218.025 111.695 220.223 111.934 221.179 112.173C222.182 112.459 223.329 113.128 223.711 113.702C224.093 114.323 224.428 115.708 224.428 116.807C224.428 118.336 224.141 119.148 223.233 120.056C222.23 121.107 221.704 121.251 218.455 121.251C216.496 121.251 213.725 121.49 212.387 121.776C211.002 122.111 208.995 122.684 206.032 123.926L209.377 124.548C211.24 124.882 214.346 125.885 216.305 126.793C218.264 127.749 220.94 129.278 222.182 130.233C223.472 131.189 224.81 132.575 225.192 133.291C225.574 134.056 225.861 135.059 225.861 135.585C225.861 136.11 225.574 137.114 225.192 137.83C224.858 138.595 223.95 139.455 223.185 139.789C222.421 140.172 221.274 140.363 220.605 140.219C219.936 140.076 218.36 139.12 217.022 138.165C215.732 137.161 213.582 135.871 212.244 135.298C210.954 134.677 208.374 133.96 206.51 133.626C203.882 133.196 202.067 133.196 198.149 133.674C193.992 134.151 192.941 134.151 192.081 133.626C191.46 133.244 190.791 132.479 190.504 131.858C190.265 131.285 190.026 130.09 190.026 129.23C189.978 128.179 190.6 126.841 192.081 124.834C193.227 123.258 195.139 121.107 196.285 120.056C197.432 118.957 199.343 117.428 200.538 116.616C201.732 115.804 203.739 114.657 205.077 114.084Z" fill="#2A271E"/>
<path d="M113.674 113.319C114.534 112.364 116.302 111.074 117.64 110.452C119.694 109.401 120.554 109.258 123.66 109.401C126.67 109.497 127.626 109.784 129.632 110.978C131.018 111.838 132.643 113.415 133.55 114.8C134.41 116.138 135.366 118.049 135.653 119.101C135.892 120.152 136.13 122.397 136.083 124.118C136.083 125.838 135.748 128.179 135.366 129.373C134.984 130.568 133.694 132.575 132.547 133.912C131.209 135.441 129.537 136.684 127.865 137.448C125.762 138.356 124.711 138.547 122.179 138.356C120.029 138.213 118.404 137.783 116.923 136.923C115.728 136.254 114.056 134.868 113.196 133.865C112.336 132.861 111.189 130.807 110.664 129.373C109.852 127.271 109.708 125.981 109.852 122.923C109.995 120.247 110.377 118.48 111.094 117.046C111.667 115.947 112.862 114.275 113.674 113.319Z" fill="#2A271E"/>
</svg>
