<svg width="40" height="40" viewBox="0 0 40 40" fill="none" xmlns="http://www.w3.org/2000/svg">
<path d="M40 20C40 31.0444 31.0465 40 20 40C8.95355 40 0 31.0465 0 20C0 8.95355 8.95355 0 20 0C31.0465 0 40 8.95355 40 20ZM14.2284 16.9053C15.4235 16.5811 18.2168 16.2174 17.9736 14.5256C17.9279 14.2035 17.4977 13.6818 17.1984 13.6132C16.6933 13.4989 14.1868 14.3303 13.2869 14.4072C12.387 14.4841 11.0506 14.4841 10.1756 14.4072C9.15515 14.3178 5.90252 13.0936 5.5305 14.351C5.02961 16.0449 8.24275 16.7432 9.44404 16.9053C7.15369 23.9406 17.1527 23.7452 14.2243 16.9053H14.2284ZM30.4396 16.9053C31.3977 16.7973 33.9811 16.1966 34.2991 15.253C35.1803 12.6364 30.5809 14.3323 29.3069 14.4196C26.6902 14.5984 24.5848 13.7525 22.1033 13.9083C21.1202 16.259 24.0341 16.552 25.6594 16.9074C23.1342 24.0133 32.7216 23.7556 30.4396 16.9074V16.9053ZM28.727 32.2332C30.0509 30.9093 26.5198 28.3363 25.5139 27.7523C21.2117 25.2478 14.4009 25.9898 11.4413 30.2255C10.6183 31.4039 10.8719 32.7466 12.4119 32.4618C13.1019 32.335 15.039 30.556 16.101 30.107C19.4077 28.7062 22.6603 29.3339 25.6032 31.2003C26.6487 31.8633 27.1578 33.1269 28.727 32.2374V32.2332Z" fill="currentColor"/>
</svg>
