<svg width="40" height="40" viewBox="0 0 40 40" fill="none" xmlns="http://www.w3.org/2000/svg">
<path d="M40 20C40 31.0451 31.0451 40 20 40C8.95492 40 0 31.0451 0 20C0 8.95492 8.95287 0 20 0C31.0471 0 40 8.95492 40 20ZM14.0553 12.6783C13.8012 12.7561 12.6721 13.7992 12.1742 14.0779C10.875 14.8053 7.93238 15.1967 7.36476 15.6189C6.68033 16.1291 6.89549 17.2787 7.70492 17.5123C9.56967 18.0492 13.8586 16.4488 15.043 14.8955C15.916 13.7479 15.6127 12.2008 14.0574 12.6783H14.0553ZM25.1209 12.6762C24.375 12.9016 24.4959 13.8791 24.7234 14.4283C25.0738 15.2787 27.3217 16.541 28.2029 16.8893C29.4078 17.3668 33.3525 18.5369 32.9713 16.2316C32.8156 15.2869 29.8873 14.9959 28.875 14.5779C28.2582 14.3238 27.7213 13.9816 27.1639 13.625C26.4324 13.1557 26.2705 12.3279 25.1209 12.6762ZM14.25 19.0615C10.9201 16.043 7.57992 22.3053 10.9734 24.4877C14.1619 26.5369 16.8074 21.3791 14.25 19.0615ZM26.9693 18.4221C24.1762 19 24.0799 24.2889 26.9693 24.8832C31.541 25.8238 31.7644 17.4303 26.9693 18.4221ZM31.4652 25.9775C30.9283 26.1209 29.4426 29.5492 29.3279 30.2049C28.5553 34.6619 34.1127 34.7213 34.0082 30.9754C33.9816 30.041 32.6926 27.0512 32.123 26.2889C31.9221 26.0225 31.8484 25.875 31.4652 25.9754V25.9775ZM26.3586 33.4857C27.9795 31.9447 24.2029 29.1086 22.8627 28.582C20.3853 27.6086 17.6639 27.957 15.4836 29.4775C14.6025 30.0922 12.4098 32.334 13.4959 33.4426C14.7562 34.7275 16.4713 32.0799 17.7275 31.5164C19.3873 30.7725 21.4672 30.9324 22.9939 31.9344C23.8258 32.4795 25.1496 34.6332 26.3566 33.4857H26.3586Z" fill="currentColor"/>
</svg>
