<svg width="40" height="40" viewBox="0 0 40 40" fill="none" xmlns="http://www.w3.org/2000/svg">
<path d="M40 20C40 31.0462 31.0462 40 20 40C8.95377 40 0 31.0462 0 20C0 8.95376 8.95377 0 20 0C31.0462 0 40 8.95376 40 20ZM11.921 11.1522C8.8374 11.788 9.09714 17.9387 11.7091 18.5392C16.6171 19.6696 16.5486 10.1984 11.921 11.1522ZM29.361 11.8005C27.9418 10.4873 25.9657 11.094 25.1699 12.7647C24.0977 15.0192 24.933 18.7636 27.8795 18.5995C30.826 18.4353 31.2374 13.5377 29.361 11.8005ZM16.2078 32.64C21.1283 37.6353 28.7855 30.186 24.0249 24.3034C18.8592 17.9221 10.959 27.3143 16.2078 32.64Z" fill="currentColor"/>
</svg>
