<svg width="40" height="40" viewBox="0 0 40 40" fill="none" xmlns="http://www.w3.org/2000/svg">
<path d="M40 20C40 31.0463 31.0463 40 20 40C8.95367 40 0 31.0463 0 20C0 8.95367 8.95367 0 20 0C31.0463 0 40 8.95367 40 20ZM14.7382 9.43675C13.7928 8.48933 11.5065 10.5362 10.4133 10.9464C9.32015 11.3566 6.03019 11.4711 6.97345 13.3472C7.72306 14.8339 12.2665 12.8787 13.3368 12.2061C14.1385 11.7022 15.7356 10.4383 14.7382 9.43884V9.43675ZM25.7637 9.21187C25.4888 9.29516 25.1494 9.74284 25.0765 10.0094C24.5997 11.7397 29.0474 13.4451 30.3634 13.697C31.6065 13.9344 33.1661 14.2738 33.0807 12.4539C32.86 11.6231 30.33 11.2566 29.4305 10.8818C28.4394 10.4695 26.632 8.95159 25.7637 9.21187ZM12.2332 14.8485C8.80791 15.5586 9.62624 22.6111 13.2119 22.0802C16.5039 21.5929 16.4852 13.9677 12.2332 14.8485ZM26.3883 14.8444C23.5419 15.5003 23.5752 22.4383 27.3608 22.0781C30.8714 21.7428 30.5258 13.8928 26.3883 14.8444ZM25.7657 33.0661C27.1567 31.6773 25.9302 28.1187 24.7871 26.7694C20.4373 21.6346 12.7913 25.7928 13.797 31.7231C14.3883 35.2129 17.9927 32.5539 19.8876 32.4893C21.7824 32.4248 24.4373 34.3925 25.7657 33.0682V33.0661Z" fill="#A78BFA"/>
</svg>
