<svg width="40" height="40" viewBox="0 0 40 40" fill="none" xmlns="http://www.w3.org/2000/svg">
<path d="M40 20.001C40 31.047 31.0466 40 20 40C8.95342 40 0 31.045 0 20.001C0 8.95706 8.95342 0 20 0C31.0466 0 40 8.95296 40 19.999V20.001ZM12.9058 12.3162C9.58547 12.9995 9.94254 20.2103 13.4558 20.0564C17.3548 19.8861 17.0162 11.4708 12.9058 12.3162ZM26.2446 12.3162C22.8258 13.0221 23.5009 20.4032 26.9977 20.0667C30.6957 19.7096 30.4084 11.4585 26.2446 12.3162ZM8.79951 24.0066C5.8424 24.6591 9.84814 28.9499 10.905 29.8158C16.9505 34.7756 27.8843 33.7372 31.8018 26.6988C32.7273 25.0346 31.771 23.4525 29.9795 24.0558C29.6265 24.1748 27.8063 26.586 27.1209 27.1503C22.912 30.6182 16.655 30.493 12.5467 26.9451C11.2969 25.8657 10.5069 23.631 8.79951 24.0086V24.0066Z" fill="#34D399"/>
</svg>
