<svg width="40" height="40" viewBox="0 0 40 40" fill="none" xmlns="http://www.w3.org/2000/svg">
<path d="M17.8027 0.140047C19.1013 -0.0466822 20.4286 -0.0466822 21.7272 0.140047C30.9589 0.709125 39.0438 8.55707 39.9263 17.7192C40.0299 18.7916 40.0191 20.7211 39.9263 21.8041C39.2367 29.8779 32.9596 37.2333 25.1552 39.3335C13.1851 42.5542 0.838008 33.6997 0.135984 21.4485C-0.0444339 20.3334 -0.0462202 19.1899 0.135984 18.0749C0.662949 9.01055 8.62101 0.709125 17.8009 0.140047H17.8027ZM9.00149 12.5886C8.47095 12.7594 8.0601 14.0344 8.71211 14.4257L15.5376 18.4786C16.7291 18.836 17.4454 17.3885 16.4647 16.6522C14.2961 15.6901 12.0918 13.7286 9.99647 12.7914C9.71781 12.6669 9.29623 12.4944 8.9997 12.5886H9.00149ZM23.7422 16.702C23.0956 17.89 23.7386 18.8396 25.0712 18.2919L31.6359 14.351C32.3791 13.2288 31.711 12.144 30.3301 12.6918C30.1301 12.7718 30.1122 13.0243 29.9818 13.0972C27.8865 14.2745 25.8608 15.5692 23.7404 16.7002L23.7422 16.702ZM11.0825 22.6311C12.5313 24.0733 14.9106 23.0952 15.1071 20.9825C15.3108 18.8076 13.9943 17.721 11.856 18.114C10.343 18.3915 10.0143 21.5676 11.0825 22.6311ZM26.6718 18.1122C25.0551 18.4768 24.8944 21.3507 25.6536 22.4248C26.6021 23.7692 29.0065 23.4758 29.6174 21.9304C30.4677 19.7786 29.2351 17.5325 26.6718 18.1122ZM21.0145 29.2608C22.8151 29.5329 24.112 29.9028 25.5607 31.041C26.3127 31.6314 27.0451 33.1306 28.1455 32.1845C29.621 30.9183 26.1091 27.6603 25.0016 26.981C21.2378 24.6762 15.5555 25.6134 12.8171 29.0474C12.2812 29.7197 10.661 31.9586 12.2204 32.421C13.3708 32.7625 14.2568 31.0748 15.1804 30.4684C16.2557 29.7641 17.5919 29.3587 18.8727 29.2608C19.5765 29.2057 20.3071 29.3 21.0145 29.2608Z" fill="currentColor"/>
</svg>
